<?xml version="1.0" standalone="no"?>
<!DOCTYPE svg PUBLIC "-//W3C//DTD SVG 1.1//EN" "http://www.w3.org/Graphics/SVG/1.1/DTD/svg11.dtd" >
<svg xmlns="http://www.w3.org/2000/svg" xmlns:xlink="http://www.w3.org/1999/xlink" version="1.1">
<metadata>
Created by FontForge 20170924 at Tue Apr 28 09:19:40 2020
 By www-data
Copyright (c) 2020, fonttype
</metadata>
<defs>
<font id="LovingYou" horiz-adv-x="200" >
  <font-face 
    font-family="LovingYou"
    font-weight="400"
    font-stretch="normal"
    units-per-em="1000"
    panose-1="2 0 5 3 0 0 0 0 0 0"
    ascent="800"
    descent="-200"
    x-height="360"
    cap-height="531"
    bbox="-224.067 -174.818 674.286 720"
    underline-thickness="50"
    underline-position="-100"
    unicode-range="U+0020-E001"
  />
<missing-glyph horiz-adv-x="364" 
d="M33 0v666h265v-666h-265zM66 33h199v600h-199v-600z" />
    <glyph glyph-name="st" unicode="st" horiz-adv-x="396" 
d="M384 637q7 0 10 -6q4 -8 -10 -39q-28 -62 -27 -63.5t73 18.5t111 33q53 17 85 24q24 6 34 1q8 -4 12 -12q4 -9 1 -21q-3 -11 -13 -15q-9 -5 -16 0t-7 18q-1 8 -3 9q-11 3 -34 -2q-25 -5 -118 -35q-43 -14 -72 -23q-57 -17 -62 -20q-2 -1 -14 -33q-48 -133 -63 -240
q-2 -10 -2.5 -36.5t1.5 -36.5q4 -42 18 -42q3 0 7 2q21 9 44 41q17 23 49 92q28 58 39 74q13 21 27 21q5 0 7 -2q5 -4 3 -8.5t-10 -6.5q-7 -1 -22 -23q-17 -24 -48 -90q-19 -40 -35 -64q-24 -38 -42 -50q-21 -13 -40 -7q-29 9 -39 48q-13 54 5 142q15 69 37 138
q-50 -86 -104 -165q0 -1 -1 -2h1q22 -16 25.5 -45t-6.5 -55.5t-26 -40.5q-52 -42 -70 -12q-17 29 12 85q9 18 21 34q3 4 7 11q-6 1 -19 1q-26 1 -42 6q-23 8 -35 27q-16 25 -7 60.5t37 61t55 24.5q10 -1 16 -4q22 -10 27 -50q4 -28 -6 -29q-4 0 -5.5 2.5t-1.5 10.5
q-1 14 -8 27q-6 11 -14 11q-4 0 -12 -5q-17 -11 -30.5 -33.5t-13.5 -38.5q0 -11 8 -18q12 -10 55 -20q9 -2 15 -4q58 86 85 132q20 34 53 92q-4 -1 -5 -2q-81 -20 -128 -14q-52 7 -64 47q-1 5 -2 14q0 14 4.5 23t11.5 9q9 0 13 -14q6 -17 11 -24q8 -10 25 -17q33 -13 89 -5
q38 5 57 11l4 1l10 20q38 86 61 99q5 3 11 3zM151 229q-3 0 -6 -3q-12 -18 -20 -32q-22 -44 -24 -63q-2 -16 11 -9q19 11 36 33q13 20 16 38q1 9 -2.5 23t-10.5 13z" />
    <glyph glyph-name="tt" unicode="tt" horiz-adv-x="356" 
d="M169 645q5 0 9 -4t4 -10q-1 -6 -3.5 -13t-7 -15.5t-5.5 -13.5q-9 -18 -28 -68q54 8 139 24q36 77 57 89q15 9 21 -3q4 -8 -10 -39q-8 -16 -16 -37q31 6 52 10q7 2 28.5 6t32.5 5.5t28.5 3.5t33 1.5t29.5 -2.5q44 -9 57 -30q7 -10 5 -22t-11 -21q-18 -20 -32 -18
q-8 2 -11 10t-1 16q0 5 6 10.5t6 6.5q3 5 -0.5 9.5t-8.5 6.5q-34 14 -95 7q-45 -6 -129 -23q-1 -2 -1 -3q-5 -12 -12.5 -31t-9.5 -26q-49 -133 -64 -240q-1 -10 -1.5 -36.5t0.5 -36.5q5 -42 18 -42q4 0 7 2q21 9 44 41q17 23 49 92q28 58 39 74q13 21 27 21q5 0 7 -2
q5 -4 3 -8.5t-10 -6.5q-7 -1 -22 -23q-17 -24 -48 -90q-19 -40 -35 -64q-24 -38 -42 -50q-21 -13 -40 -7q-29 9 -39 48q-13 54 6 142q2 13 5 26q-1 -3 -25 -52q-30 -65 -60 -100q-22 -22 -42 -23q-15 0 -28 9.5t-18 24.5q-17 45 -5 116q15 87 48 187q2 5 6 18
q-59 -6 -111 -5q-48 2 -67 18q-26 21 -14 62q4 16 13.5 27.5t23.5 13.5q9 0 12 -9t-4 -14q-12 -34 -12 -47q-1 -8 4.5 -14t13.5 -8q22 -4 66 -4q40 0 84 4q32 74 52 105q17 24 30 25h2zM266 521q-11 -2 -21 -4q-71 -13 -116 -19q0 -1 -0.5 -1.5l-0.5 -0.5q-36 -97 -57 -201
q-7 -32 -7 -71t9 -57q3 -10 14 -4q24 14 46 49q13 20 32.5 61t24.5 50l6.5 13t8.5 15.5t8 11.5q17 62 35 113q1 3 2 5.5t1.5 4l0.5 1.5l12 28z" />
    <glyph glyph-name=".notdef" horiz-adv-x="364" 
d="M33 0v666h265v-666h-265zM66 33h199v600h-199v-600z" />
    <glyph glyph-name=".null" horiz-adv-x="0" 
 />
    <glyph glyph-name="nonmarkingreturn" horiz-adv-x="333" 
 />
    <glyph glyph-name="space" unicode=" " 
 />
    <glyph glyph-name="exclam" unicode="!" horiz-adv-x="210" 
d="M94 272q-8 5 -10 18q-1 9 7 36q3 11 24.5 64.5t31.5 75.5q18 40 29 58q16 26 35 21q4 -1 8.5 -5.5t6.5 -8.5q2 -10 -8 -27q-22 -39 -62 -140q-32 -80 -40 -87q-5 -5 -7 -6q-9 -3 -15 1zM55 141q-8 3 -12 11q-5 10 -1 19q5 11 17 13.5t21 -6.5q8 -8 6 -19.5t-12 -16.5
q-9 -5 -19 -1z" />
    <glyph glyph-name="quotedbl" unicode="&#x22;" horiz-adv-x="209" 
d="M152 431q-12 4 -15 15q-1 4 -1 20q0 17 -1 32q-2 23 1 28q7 11 20 4q7 -4 12 -13q8 -16 8 -53q0 -17 -1 -21q-3 -7 -10 -10.5t-13 -1.5zM87 417q-4 1 -6 5q-6 9 -5 34q1 13 0 35q-2 27 3 32q6 5 13 3q10 -3 16.5 -16t6.5 -45q0 -22 -3 -32q-4 -13 -11 -16q-7 -4 -14 0z
" />
    <glyph glyph-name="numbersign" unicode="#" horiz-adv-x="513" 
d="M266.5 301.5q18.5 3.5 36.5 6t18.5 3t13.5 26.5l13 26l-6 -1q-70 -7 -70 -8q-3 -3 -24 -47l-3 -10h1q2 1 20.5 4.5zM132.5 126.5q-8.5 5.5 -7.5 14t11 25.5q12 19 30.5 53t17.5 35q-3 3 -44 -10q-38 -12 -43 -7q-5 6 2.5 13t27.5 15q26 10 61 19l13 4l14 30q5 8 8 15
t5 11t1 4q-2 1 -39.5 -6t-58.5 -12q-22 -6 -25 -3q-7 5 0 12q14 15 115 34q22 4 23.5 4.5t8.5 12.5q28 46 52 70q16 17 27 18q6 0 9 -2.5t3 -5.5q0 -7 -19 -33q-8 -10 -22 -30.5t-14 -21t19.5 2t38 4t20 3t11.5 17.5q47 71 65 54q6 -6 -2 -15q-6 -6 -12 -15q-27 -36 -27 -39
q0 -1 26 -1q54 0 61 -10q3 -4 2 -10t-6 -9q-4 -3 -35 -1q-19 1 -42 0.5t-24 -2.5q-1 -1 -13 -24.5t-12 -24.5t15 -1q37 2 65 -2q16 -2 19 -9q4 -8 -1.5 -14t-25.5 -5q-35 3 -66 1q-19 -1 -20.5 -2t-6.5 -13q-21 -48 -46 -94q-16 -30 -21 -36.5t-11 -7.5q-10 -1 -15 4
q-7 6 -7 14q0 6 15 31q55 96 52 98q-1 1 -38.5 -6t-38.5 -9q-2 -1 -20 -37q-45 -91 -58 -100q-9 -6 -17.5 -0.5z" />
    <glyph glyph-name="dollar" unicode="$" horiz-adv-x="334" 
d="M180 375q8 40 18 81q2 6 3 10.5t1.5 7l0.5 2.5q-4 0 -23 -20q-36 -36 -30 -60q3 -11 13 -18q11 -9 14 -9q2 0 3 6zM196 223q9 6 18 15q21 21 21 40q1 12 -10 21q-3 3 -11 8t-14.5 8.5t-7.5 3.5q0 -2 -10.5 -55t-10.5 -55q0 -1 4.5 1.5t10.5 6t10 6.5zM129 51q-10 6 -4 39
q9 52 11 62q0 1 -1.5 1.5t-9.5 0.5q-27 2 -40 6q-30 11 -40 30q-9 17 0 34q4 9 10 12.5t10 -0.5q3 -3 -3 -14q-8 -13 0 -25q3 -5 10 -8l6 -3h18h17l15 5q15 5 16 7t6 32q17 88 20 100q1 3 -7 8q-27 19 -36 44q-5 14 -1 31q3 16 17 36q23 32 60 53l8 5l2 8q12 45 17 59
q17 54 26 50q6 -4 -6 -50q-14 -54 -13 -55t5 1t14 3q24 4 38 -10q25 -23 -2 -74q-16 -31 -37 -51q-23 -22 -30 -13q-1 1 -1 4q0 4 11 14q17 16 30 36q20 30 23 50.5t-13 24.5q-17 4 -39 -8q-5 -3 -6 -6q-7 -24 -18.5 -77.5t-10.5 -54t10 -4.5q56 -24 68 -58q2 -7 2 -19
q0 -19 -9 -38q-13 -24 -40 -46t-57 -32q-12 -3 -12 -4q-1 0 -7 -45q-3 -26 -5 -34q-3 -20 -11 -27q-6 -4 -11 0z" />
    <glyph glyph-name="percent" unicode="%" horiz-adv-x="321" 
d="M124 457q9 4 16 16t7 23v4l-8 3q-12 4 -18 10l-4 4l-3 -7q-10 -19 -10 -36q0 -13 8 -17q5 -3 12 0zM235.5 188.5q14.5 7.5 23.5 22.5q8 13 6 23t-11 15q-5 2 -15 2q-16 0 -19 -6q-5 -8 -9.5 -23t-4.5 -22q0 -9 7 -13q8 -6 22.5 1.5zM199 162q-9 3 -15 9q-12 11 -14 29
q-1 6 -1.5 6t-9.5 -9q-31 -27 -55 -31q-7 -1 -13 0q-15 4 -24 23l-5 9v14q0 21 6 45q19 65 69 137q37 53 76 89l13 11l-25 1q-25 0 -32.5 1.5t-8 1.5t-0.5 -5q0 -11 -7 -24q-9 -19 -26 -27q-8 -4 -16.5 -4t-13.5 3q-17 9 -20 32q-4 24 12 52t36 32q10 2 14 -4q4 -5 -1 -10
l-2 -3l2 -2q6 -3 12 -11q2 -3 13 -5q40 -9 83 -3l18 2l4 -2q12 -7 5 -20q-2 -4 -28 -29.5t-37 -38.5q-34 -40 -64.5 -93t-41.5 -92q-13 -47 -9 -58q1 -2 4 -4t8 -1q15 3 34 17q8 7 21 19.5t14.5 18t6.5 15.5q25 49 45 31q2 -2 11 -3q23 -1 36 -16q19 -18 10.5 -47.5
t-37.5 -46.5q-26 -15 -47 -9z" />
    <glyph glyph-name="ampersand" unicode="&#x26;" horiz-adv-x="335" 
d="M141 348q12 16 22 30q43 54 45 85q1 8 -1 16q-4 12 -13 19q-17 12 -41 12q-27 0 -47 -14.5t-27 -40.5q-5 -17 0 -38q9 -33 38 -68q8 -9 10 -11q2 -3 2.5 -3t11.5 13zM149 194q23 8 46 26q19 16 19 19q0 1 -6 5q-30 20 -53 41q-7 6 -8 5t-10 -15q-16 -25 -23 -45
q-3 -10 -3 -21q0 -15 7 -17q12 -4 31 2zM101 160q-32 10 -32 50q0 24 17 58q12 23 30 47l3 4l-9 11q-55 66 -48 118q3 28 22 48.5t49 27.5q9 3 27.5 3t27.5 -3q15 -4 26 -13q23 -18 23 -51q0 -34 -24 -76q-11 -19 -37 -53l-17 -24q0 -2 36 -30q29 -23 32 -23t21 28
q7 10 14.5 26t9.5 17q6 3 8 -3q3 -8 -1 -21q-7 -22 -32 -53q-3 -4 -3 -5t15 -9.5t24 -11.5q18 -8 10 -16q-10 -9 -53 17l-9 5l-13 -14q-34 -35 -67 -49q-28 -12 -50 -5z" />
    <glyph glyph-name="quotesingle" unicode="'" horiz-adv-x="166" 
d="M105 407q-6 2 -10 9q-1 4 -1 15.5t1 22.5q3 17 6 63q1 17 7 20q7 3 14 -5q8 -10 11.5 -36.5t-0.5 -54.5q-3 -22 -11 -30q-7 -7 -17 -4z" />
    <glyph glyph-name="parenleft" unicode="(" horiz-adv-x="203" 
d="M152 92q-8 4 -16 20q-20 42 -28 105q-6 52 0 113.5t23 113.5q10 32 29 70.5t36 61.5q21 29 37 29q13 0 14 -12q1 -7 -11 -24q-27 -39 -48 -89q-31 -72 -40 -159q-2 -15 -2 -43.5t1 -41.5q6 -52 23 -99q6 -19 6 -26q1 -13 -7 -18q-7 -5 -17 -1z" />
    <glyph glyph-name="parenright" unicode=")" horiz-adv-x="194" 
d="M63 79q-8 3 -10 12q-1 6 8 30q42 111 42 246q0 52 -8 92q-10 54 -40 122q-6 12 -6 18t3 8q9 8 22 -3.5t27 -38.5q27 -54 36 -112q5 -31 6 -74q2 -116 -28 -222q-15 -53 -28 -71q-11 -14 -24 -7z" />
    <glyph glyph-name="asterisk" unicode="*" horiz-adv-x="260" 
d="M142 335q-7 3 -10 11q-2 7 2 22l2 8l-11 -5q-19 -9 -27.5 -5t-8.5 12q0 7 5.5 12.5t22.5 13.5q4 3 8 5l6 3t2 2q-1 1 -10 8q-13 11 -12 19q2 12 16 8q8 -2 23 -13q6 -6 7 -6t6 10q12 24 19 28t12 -1q4 -5 0 -19q-2 -9 0 -9q20 8 27 5q18 -9 -19 -31q-13 -8 -14.5 -8.5
t9.5 -10.5q15 -15 18 -22q5 -11 -4 -15q-9 -5 -27 11q-9 7 -10 6.5t-4 -12.5t-5 -16q-9 -17 -23 -11z" />
    <glyph glyph-name="plus" unicode="+" horiz-adv-x="279" 
d="M153 237q-7 4 -9 13q-1 5 3 27.5t3.5 23t-11.5 -0.5q-16 -3 -21.5 -2.5t-9.5 4.5q-3 3 -3 7q0 14 40 20l12 1l4 17q7 29 11 34q4 7 11.5 6t10.5 -7q4 -9 0 -35q-2 -10 -2 -11t9 -1q28 0 35 -4q9 -5 9 -12q0 -5 -3 -8q-4 -5 -32 -5q-21 0 -22 -1t-5.5 -28t-7.5 -31
q-11 -14 -22 -7z" />
    <glyph glyph-name="comma" unicode="," horiz-adv-x="141" 
d="M76 162q-6 4 -9 11q-2 4 -2.5 29.5t-2 32.5t-1.5 12.5t3.5 9t8.5 3.5q11 0 19 -9q9 -9 13 -24q3 -8 3 -23.5t-2 -21.5q-6 -20 -21 -21q-6 0 -9 1z" />
    <glyph glyph-name="hyphen" unicode="-" horiz-adv-x="248" 
d="M120 288q-10 2 -13 8q-5 11 6 17q5 3 34 5q42 2 48 0q9 -4 11 -11.5t-5 -13.5q-4 -4 -11 -5t-33 -1q-32 -1 -37 1z" />
    <glyph glyph-name="period" unicode="." horiz-adv-x="125" 
d="M60 193q-9 3 -13 12q-9 20 12 31q3 2 9.5 1.5t9.5 -2.5q13 -6 13 -20q0 -12 -10 -19t-21 -3z" />
    <glyph glyph-name="slash" unicode="/" horiz-adv-x="178" 
d="M51 107q-3 1 -5.5 5t-2.5 14q0 11 12 54q38 135 126 324q30 63 49 96q28 52 43 36q2 -2 2 -10.5t-4 -18.5q-5 -16 -48 -106q-38 -83 -68 -157q-44 -108 -69 -194q-9 -33 -15 -40q-8 -10 -20 -3z" />
    <glyph glyph-name="zero" unicode="0" horiz-adv-x="256" 
d="M156 247q14 4 27 20t20 37q21 59 -9 107q-5 8 -6 8q-4 0 -30 -51q-25 -50 -25 -89q0 -22 8 -31q4 -5 15 -1zM131 205q-30 4 -41 40q-15 51 16 122q11 25 27 52t24 34q9 9 20 9q17 0 19 -15q1 -4 5 -7q10 -7 20 -25q17 -33 15.5 -73.5t-21.5 -79.5q-7 -15 -20 -28
q-30 -32 -64 -29z" />
    <glyph glyph-name="one" unicode="1" horiz-adv-x="187" 
d="M118 210q-9 3 -13 12q-2 5 -2 41q1 91 6 155q1 16 2 27v8l-17 -17q-22 -22 -32 -24q-7 -2 -12 0.5t-6.5 8t3 11.5t29.5 31q32 31 39 40q11 13 15.5 16.5t10.5 3.5q17 0 20 -30q1 -12 -2 -35q-8 -70 -9 -177l-1 -54l-3 -5q-4 -9 -13 -12q-7 -3 -15 0z" />
    <glyph glyph-name="two" unicode="2" horiz-adv-x="292" 
d="M253 251q-8 2 -19.5 5.5t-37 9.5t-37.5 6q-20 0 -29 -2l-9 -3l-6 -7q-18 -22 -40 -31q-13 -5 -22 -2q-11 5 -11 15t14 23q18 16 49.5 58t49.5 73q34 57 32 86q-1 10 -4.5 14t-11.5 5q-18 2 -43 -19q-25 -23 -39 -50q-9 -18 -12 -35q-1 -9 -3 -12q-3 -4 -7 -4.5t-8 3.5
q-3 4 -2 14q1 22 18 51t44 55q35 33 63 33q18 0 31.5 -10.5t17.5 -28.5q16 -61 -73 -183l-10 -13l14 -1q38 -2 102 -21q18 -5 22.5 -15.5t-6 -15t-27.5 1.5z" />
    <glyph glyph-name="three" unicode="3" horiz-adv-x="266" 
d="M93 184q-9 1 -16 3q-28 10 -44 30q-9 11 -13 25q-3 12 0.5 23.5t11.5 15.5q7 4 12 -1t-1 -15q-4 -7 -3 -13q1 -13 12 -23t28 -13q17 -4 37 1q20 6 42 21q20 13 35.5 36.5t15.5 41.5q0 22 -19 28q-16 6 -44 2q-14 -3 -18 -2q-6 1 -10 6t-4 11q0 13 24 41q42 49 41 77
q-1 7 -3 9q-6 5 -20 0.5t-27 -14.5q-12 -10 -21.5 -25t-8.5 -22q1 -3 -1 -6t-6 -3q-7 0 -10 6q-5 12 5 32q8 15 24.5 30.5t33.5 23.5q16 8 30 8q25 0 36 -18t4 -47t-37 -67q-9 -11 -7.5 -11.5t7.5 -0.5q50 -4 62 -48q5 -19 -1 -41q-12 -50 -59 -82q-41 -28 -88 -19z" />
    <glyph glyph-name="four" unicode="4" horiz-adv-x="202" 
d="M135 178q-4 3 -6 7q-6 11 4 101q3 24 2 25t-27.5 -5.5t-42.5 -12.5q-12 -5 -15 -5q-5 0 -9.5 5t-3.5 11q1 10 39 73q23 38 34 57q28 48 31 53q9 11 19 5q7 -4 4 -16q-6 -33 -66 -134q-8 -13 -7.5 -13t10.5 3q18 6 34 8q4 1 4.5 2.5t2.5 12.5q7 45 14 62q5 12 13 13
q6 1 9 -3.5t3 -15.5q0 -14 -4 -59q-1 -14 0 -14.5t4 -2.5q7 -7 0 -15q-2 -3 -4 -3q-3 0 -4 -10q-3 -35 -7 -79q-3 -41 -9 -47q-10 -10 -22 -3z" />
    <glyph glyph-name="five" unicode="5" horiz-adv-x="206" 
d="M68 216q-20 3 -33.5 10.5t-22.5 20.5t-8 29q1 13 6 21q9 15 17 10q5 -3 -2 -16q-8 -17 -3 -28q4 -11 15 -15q14 -5 27 1q5 3 11 5.5t19 11.5q49 33 62 80q4 18 1 29q-2 7 -14 9q-6 1 -22.5 -1.5t-25 -2.5t-13.5 2q-12 7 -18 25q-2 6 -2 17.5t4 26.5q7 30 16 44q4 8 15 10
q17 3 55.5 3t49.5 -4q7 -2 9 -5q3 -5 1.5 -10.5t-5.5 -8.5q-7 -3 -36 0q-17 1 -41.5 2t-25.5 0q0 -1 -1 -10q-3 -26 -9 -49q-4 -12 -1 -17q1 -3 23 0q33 6 48 1q32 -10 34 -54q2 -34 -23 -71q-22 -32 -50 -50q-14 -10 -34 -14q-14 -3 -23 -2z" />
    <glyph glyph-name="six" unicode="6" horiz-adv-x="227" 
d="M163 220q13 6 18 17q8 16 -6 22q-5 2 -12 1q-20 -1 -32 -19l-5 -6l2 -4q4 -7 14 -13q10 -4 21 2zM132 189q-13 3 -26 13q-32 28 -30 87q2 41 20 85q14 31 34 60.5t37 42.5q15 12 26 12q6 0 10 -3q4 -5 3.5 -11t-5.5 -9q-15 -7 -41 -46q-45 -69 -45 -136q0 -12 1 -14t5 1
q17 13 38 14q23 1 37 -12q17 -16 9.5 -41.5t-32.5 -37.5q-19 -10 -41 -5z" />
    <glyph glyph-name="seven" unicode="7" horiz-adv-x="244" 
d="M127 159q-17 4 -11 32q2 8 4 15q6 24 24 75q5 15 4.5 15t-25.5 2q-30 2 -35 5q-8 4 -8 12t7 11q7 4 47 4l29 1l7 15q15 31 48 87q15 24 16 26l-4 1q-5 0 -35 -4q-55 -6 -86 -6h-26l-5 2q-15 7 -8 20q2 4 7.5 5.5t29.5 2.5q35 2 73 7q33 3 52.5 3t24.5 -2q10 -5 13 -15
q2 -6 1 -14q-3 -17 -35 -73q-32 -54 -32 -59q0 -1 6 -2q14 -3 20 -7q4 -2 5 -8t-2 -10q-4 -7 -26 -8q-17 0 -18 -1q-3 -3 -20 -56q-22 -70 -31 -74q-6 -3 -11 -2z" />
    <glyph glyph-name="eight" unicode="8" horiz-adv-x="198" 
d="M148 401q12 16 18 31q3 9 3 18.5t-3 13.5q-6 11 -20.5 8.5t-25.5 -15.5q-21 -28 3 -64l6 -9l2 -2l6 6q6 6 11 13zM139 262q8 4 15 12t9 15q3 13 -14 39l-5 9l-5 -4l-10 -6q-12 -6 -24 -27q-11 -19 -5 -29q4 -9 16 -11.5t23 2.5zM96 228q-17 4 -27 15q-19 20 -12 49
q7 30 37 54q8 6 11.5 11t8.5 9l5 4l-6 10q-16 25 -16 48q0 24 21 45q32 32 62 18q20 -10 24 -36t-10 -55q-13 -27 -32 -46q-4 -4 -4 -4.5t5 -9.5q19 -28 20 -48q1 -25 -16 -41q-12 -13 -32 -20q-10 -3 -21 -3.5t-18 0.5z" />
    <glyph glyph-name="nine" unicode="9" horiz-adv-x="237" 
d="M149 374q11 4 27.5 19.5t18.5 24.5q0 3 3.5 18t1.5 16q-4 4 -19 2q-13 -2 -26 -14t-20 -27q-12 -26 0 -37q5 -5 14 -2zM128 199q-2 0 -11 3q-22 7 -40 34q-13 19 -19 38t-3 30q2 9 7 9t5 -14q0 -17 9.5 -35t22.5 -25q12 -7 27.5 -5.5t25.5 11.5q21 19 32 90q6 44 6 52
q0 1 -5 -4q-28 -27 -46 -36q-11 -6 -24 -3q-18 4 -27 23l-4 8v15q0 15 3 24q10 28 29.5 48.5t41.5 26.5q30 8 54 -8q6 -3 10 -3q12 0 14 -14q2 -13 -5 -82q-8 -73 -15 -103q-15 -59 -55 -75q-17 -8 -33 -5z" />
    <glyph glyph-name="colon" unicode=":" horiz-adv-x="188" 
d="M117 380q13 0 19 -11t0 -22q-3 -8 -11.5 -11t-16.5 0q-14 6 -14 21q0 11 6 17t17 6zM113 285q10 0 17 -7t6 -18q-1 -10 -9.5 -16.5t-18.5 -3.5q-17 5 -17 22q0 21 20 23h2z" />
    <glyph glyph-name="semicolon" unicode=";" horiz-adv-x="174" 
d="M108 344q-8 3 -12 7q-6 7 -6 16q0 16 13.5 21.5t24.5 -5.5q10 -10 6.5 -23t-17.5 -15q-5 -1 -9 -1zM81 218q-8 3 -10 11q-3 8 6 27q8 17 12 34q4 14 7.5 18.5t11.5 4.5q5 0 8 -4q13 -12 8 -39q-5 -30 -19 -45q-12 -13 -24 -7z" />
    <glyph glyph-name="less" unicode="&#x3c;" horiz-adv-x="273" 
d="M194 107q-7 4 -12 13q-2 5 -12.5 32.5t-15.5 40.5q-12 29 -26 52q-7 12 -18 24.5t-18 15.5q-9 5 -9 13q0 5 1 8q2 6 80 81q47 45 57 53.5t17 9.5q9 1 14 -5q5 -8 -3.5 -20.5t-35.5 -39.5q-66 -66 -81 -78l-8 -6l5 -5q41 -34 79 -140q9 -25 8 -34q-1 -11 -7 -15
q-7 -4 -15 0z" />
    <glyph glyph-name="equal" unicode="=" horiz-adv-x="325" 
d="M124 324q-14 2 -16 11q-4 14 14 19q19 6 78 9q27 2 38 -1q13 -4 13 -15t-13 -16q-8 -3 -44 -4q-23 -1 -35 -2q-29 -2 -35 -1zM133 260q-11 3 -11 13q0 15 40 22q37 7 66 8q46 1 46 -15q0 -9 -12 -13q-18 -6 -38 -8l-36 -3t-32 -3q-7 0 -14 -1h-9z" />
    <glyph glyph-name="greater" unicode="&#x3e;" horiz-adv-x="224" 
d="M74 184q-4 2 -7 6t-3 11q-1 12 8 33q16 41 39 75q18 27 45 45q3 2 -2 4q-1 1 -4 2q-13 7 -49.5 31.5t-41.5 30.5q-10 11 -1 21q11 12 49 -9q24 -14 52 -33q9 -6 20 -17t15 -17q7 -11 -6 -22q-14 -13 -32 -38q-15 -20 -41 -83q-11 -26 -17 -34q-11 -12 -24 -6z" />
    <glyph glyph-name="question" unicode="?" horiz-adv-x="246" 
d="M193 565q9 0 15 -2q33 -8 43 -45q6 -23 0 -52q-6 -27 -28 -77q-22 -51 -28 -79q-6 -26 -7 -69q0 -34 -2 -38q-5 -10 -16 -10q-7 -1 -10 1q-6 3 -8 8q-5 9 -5 42q0 39 6 67q8 36 32 94q18 41 23 56.5t6 31.5q0 12 -1 18q-5 15 -17 16q-10 1 -24 -6q-28 -12 -47.5 -44.5
t-23.5 -69.5q-1 -17 3 -33q5 -18 -6 -25q-7 -6 -17 -1q-9 5 -15 18q-19 39 16 111q15 32 39 54q35 33 72 34zM166 149q10 0 16.5 -6.5t6.5 -15.5q0 -8 -5 -14.5t-12 -7.5q-7 -2 -13 0q-7 2 -11.5 8.5t-4.5 13.5q0 9 6.5 15.5t16.5 6.5z" />
    <glyph glyph-name="at" unicode="@" horiz-adv-x="419" 
d="M234 276q4 3 8.5 8t6.5 17q6 25 14 43q0 1 -0.5 1.5t-2.5 -0.5q-12 -2 -22.5 -20.5t-14.5 -43.5q-2 -11 -2 -12q0 -4 13 7zM211 131q-45 7 -80 42q-22 21 -34 53q-13 33 -13 65q0 24 7 46q22 66 89 104q32 18 70 24q8 1 25.5 1t24.5 -1q21 -4 37 -12q49 -25 62 -77
q13 -50 -13 -104q-11 -22 -28.5 -41.5t-34.5 -27.5q-11 -6 -26 -6q-17 0 -32 14q-17 16 -19 43l-1 7l-3 -4q-26 -24 -47 -12q-13 9 -16 27.5t6 41.5q15 42 44 57q19 10 42 2q8 -3 15 -3q12 0 17 -5q6 -7 4 -18q-1 -7 0 -11q5 -13 3 -24q-2 -9 -10 -10h-4l-2 -10
q-5 -29 -1 -44q5 -20 25 -15q26 7 49 54q16 34 14 64q-4 38 -28 62q-19 19 -48 27q-11 2 -27.5 2t-30.5 -3q-48 -12 -82 -47q-12 -12 -19 -24q-10 -16 -16 -33q-4 -15 -5 -29t1 -27q7 -48 39 -80q14 -14 32 -23q22 -11 53 -11q17 0 20 -2q5 -2 6.5 -8.5t-1.5 -11.5
q-6 -9 -25 -12q-17 -4 -39 0z" />
    <glyph glyph-name="A" unicode="A" horiz-adv-x="423" 
d="M203 335q38 20 80 34q14 4 15 7q5 22 17 96q13 81 9 85q-2 2 -19 -13q-30 -29 -74 -117q-29 -58 -39 -87q0 -2 -2.5 -7t-1.5 -5t15 7zM85 -4q-5 4 -5 18q0 30 15 94.5t39 135.5q8 24 8 24.5t-7 -4.5t-16 -11.5t-16 -11.5q-54 -40 -82 -76q-5 -7 -7 -8q-4 -1 -8 1t-5 7
q-2 12 24 41t67 59q25 19 52 36q13 9 14.5 12.5t9.5 23.5q46 117 97 193q29 43 44 56q17 15 33 12q10 -1 18 -10q13 -14 10.5 -51t-19.5 -128q-4 -24 -4 -24.5t11 1.5q42 5 75 0q14 -3 22 -9.5t4 -12.5q-5 -8 -30 -4t-50 1q-34 -2 -37 -5q-1 -1 -6 -34.5t-7 -56.5
q-9 -98 4 -184q3 -16 4 -19t1 -10q0 -26 -21 -26q-9 0 -17 9q-6 7 -9 20q-14 57 -11 161q2 55 10 109q2 17 2 18h-0.5t-3 -0.5t-6.5 -2t-11 -3.5q-48 -18 -87 -42q-12 -7 -13 -11q-32 -91 -53 -175q-13 -51 -18 -93q-2 -13 -3 -16q-4 -9 -12 -4z" />
    <glyph glyph-name="B" unicode="B" horiz-adv-x="316" 
d="M110 102q30 12 66 43q34 31 62 78q31 54 39 102q2 13 1 27t-3 19q-3 12 -13 17q-4 2 -15 2q-16 0 -40 -9q-20 -7 -34 -20q-10 -10 -18 -11q-15 -2 -23 13q-6 14 14 37q7 8 18 23q59 73 73 126q7 27 3 29q-2 2 -16 -9q-22 -17 -52 -74.5t-51 -124.5q-6 -18 -16 -54.5
t-18 -66t-7 -29.5l11 9q21 15 46 24q23 8 47 8q17 -1 35 -6q12 -3 16.5 -7t4.5 -9q0 -8 -9 -10q-5 -1 -22 3q-31 9 -66 -3q-40 -14 -67 -50q-7 -11 -9 -16t-7 -25q-3 -15 -1 -20q5 -15 23 -19q11 -3 28 3zM17 29q-11 7 -14 26q-6 31 2 139q12 178 57 337q13 43 23 60.5
t21 15.5q8 -2 11 -9q4 -12 -10 -67q-3 -14 -8 -34q-4 -20 -7 -34q-10 -44 -15 -75q-10 -55 -16 -92q-7 -57 -6 -58l0.5 1t1.5 5l2.5 10t5.5 19q46 174 101 263q36 59 62 75q17 11 33 6q8 -2 15 -9.5t9 -16.5q4 -13 2 -32q-9 -58 -62 -133q-11 -16 -11 -16.5t7 1.5
q34 8 54 -3q23 -12 29 -48q5 -25 1 -52q-7 -60 -38 -117q-34 -64 -88 -101q-32 -22 -60 -26q-18 -2 -38 3q-15 4 -26 11l-4 4l-1 -6q-1 -7 -2.5 -18t-2.5 -17q-2 -9 -11 -13t-17 1z" />
    <glyph glyph-name="C" unicode="C" horiz-adv-x="263" 
d="M72 31q-22 3 -36 17q-24 24 -33 70q-2 12 -2 43t3 52q15 113 65 214q38 75 85 121q33 32 61 40q22 7 43 1t33 -22q23 -31 18 -80q-8 -76 -48 -128q-15 -19 -26 -19q-7 0 -9.5 5t1.5 10q2 3 8 10q26 28 40 71q14 41 12.5 71.5t-17.5 40.5q-10 6 -20 4q-23 -2 -52 -27
q-37 -30 -69 -85q-37 -64 -58.5 -136.5t-23.5 -137.5q-1 -33 5 -54q5 -15 12 -25q10 -13 28 -10q32 4 80 52q46 46 88 125q10 18 14 22.5t9 4.5q14 0 7 -21t-37 -70q-35 -56 -75 -102q-18 -20 -36 -35q-21 -16 -38 -21q-16 -4 -32 -1z" />
    <glyph glyph-name="D" unicode="D" horiz-adv-x="263" 
d="M109.5 156q16.5 7 35.5 27t33 43q37 62 49 150q2 16 2.5 46t-1.5 44q-5 32 -10.5 34t-19.5 -11q-13 -12 -34 -48.5t-40 -76.5q-9 -20 -20.5 -48t-19 -48t-5.5 -18q1 0 7 10q19 29 45 50q12 9 26.5 16t20.5 6q4 0 6.5 -2t2.5 -4q-2 -7 -9 -12q-21 -12 -35 -23
q-22 -18 -39.5 -44.5t-23.5 -51.5q-3 -12 -2 -21q1 -18 8 -21.5t23.5 3.5zM102 119q-46 9 -47 55q0 9 -2 -1q0 -3 -1 -7q-11 -94 -15 -99q-5 -8 -16 -7q-16 2 -20 31q-2 23 10 173q14 180 29 269q7 37 14 52.5t18 18.5q14 4 19 -10q2 -5 2 -16q0 -15 -6 -46
q-11 -64 -19 -137q-13 -129 -10 -132l1.5 2.5t3.5 7t4 9.5q19 46 41 90t45 82q37 63 57 72q7 4 16 4t15 -3q11 -6 18 -17q17 -26 17 -86q0 -92 -37 -180q-15 -35 -36 -64t-40 -42q-13 -9 -30 -14q-19 -7 -31 -5z" />
    <glyph glyph-name="E" unicode="E" horiz-adv-x="332" 
d="M134 -2q-14 4 -25 15q-7 7 -13 19q-13 26 -15 69q-2 50 9 118q4 21 3 22l-2 -1t-5.5 -3t-7.5 -4q-21 -13 -50 -36q-13 -10 -19 -10q-3 0 -5 1.5t-3 4.5q-3 11 24.5 36t64.5 45l13 7l5 20q28 107 71 196q10 19 9 19q0 1 -25.5 -16t-38.5 -27q-10 -7 -23 -18
q-28 -24 -35 -27t-11 3q-6 7 3 19.5t37 36.5q32 29 65 51q83 55 159 73q40 10 68 3q23 -5 26 -16q2 -8 -5.5 -13t-17.5 -3q-18 3 -44 -1q-33 -5 -74 -21q-14 -6 -16 -7.5t-3 -5.5q-1 -10 -16 -39q-46 -87 -75 -186q-5 -18 -4.5 -18.5t8.5 1.5q34 11 59 12q26 2 37 -3
q11 -6 5 -18q-3 -5 -17 -7q-9 -1 -10 -1.5t-13 -1.5q-21 -3 -41 -8q-35 -9 -38 -12t-11 -51q-10 -56 -10 -102q0 -47 15 -70q7 -11 15 -12q14 -3 35 14q17 14 39 39q27 32 61 87q15 23 23 32q14 13 26 14q10 0 14 -7q4 -9 -11 -17q-12 -6 -29 -32q-9 -14 -21 -33
q-15 -24 -34 -48t-36.5 -42t-29.5 -25q-26 -16 -46 -16q-9 0 -14 1z" />
    <glyph glyph-name="F" unicode="F" horiz-adv-x="259" 
d="M72 101q-1 61 15 173l3 20q-2 2 -41 -21q-13 -7 -20 -7t-9.5 5.5t1.5 12.5q7 15 72 50l5 2l5 25q20 98 41 168q1 1 0 1q-6 0 -53 -33q-53 -37 -72 -71q-4 -7 -6 -8q-5 -3 -10 1q-5 6 3 23q13 26 45 58q48 48 104 75q5 3 10 13q11 26 23 27q15 1 18 -15q0 -5 0.5 -5t8.5 3
q74 20 145 4q21 -5 44 -16q27 -9 26 -27q0 -16 -22 -12q-7 1 -15 5q-32 15 -66 19q-31 4 -61 0q-20 -2 -43.5 -8t-23.5 -9q-1 -1 -4 -13.5t-10 -40.5q-38 -139 -35 -142q0 -1 10 2q37 12 64 15q8 1 22 1t18 -2q20 -9 14 -19.5t-25 -10.5q-15 0 -45 -6q-15 -4 -39 -11
t-26 -10q-4 -4 -16 -98q-3 -27 -8 -73q0 -5 -1.5 -22t-2.5 -26q-7 -31 -15.5 -43t-14.5 -6.5t-10 20t-3 32.5z" />
    <glyph glyph-name="G" unicode="G" horiz-adv-x="287" 
d="M80 12.5q-13 2.5 -26.5 9t-24 16t-19.5 21.5q-17 27 -5 30q2 1 5 0q4 0 12 -9q31 -31 78 -28q46 2 75 46q17 26 27.5 61t23.5 116q6 34 11.5 64.5t5.5 31.5t-7 -6q-55 -68 -98 -102q-18 -14 -34 -22q-15 -8 -34 -9q-33 -2 -47 29q-15 32 -4 86q24 116 89 213q22 32 39 50
q41 41 82 20q30 -16 47 -83q7 -27 7 -47q0 -27 -8 -27q-4 0 -5 9q-5 35 -20 70q-10 25 -22 37t-23 7q-11 -4 -26 -20q-13 -14 -35 -47q-59 -89 -80 -195q-2 -12 -2 -28.5t2 -22.5q4 -10 12 -12q4 -1 13 1q32 7 90 65q26 25 48.5 53t28.5 41q2 5 6 14.5t8 12.5q6 4 13.5 3
t12.5 -7q8 -11 -1 -57q-8 -45 -22 -124q-8 -49 -12 -69q-17 -86 -48 -133q-20 -29 -45 -44q-14 -9 -32 -13q-12 -3 -27.5 -3.5t-28.5 2z" />
    <glyph glyph-name="H" unicode="H" horiz-adv-x="380" 
d="M386 407q22 13 39 35t24 45q2 8 2 18q-1 16 -9 25q-12 12 -30 -10q-15 -19 -31 -96q-5 -21 -3 -21zM297 23q2 8 10 137q9 157 13 179q1 7 0 7.5t-41 -13t-54 -19.5q-16 -6 -41 -18.5t-26 -14.5q-3 -5 -10 -59q-10 -82 -6 -171q1 -30 -5 -42q-8 -16 -21 -12q-8 2 -15 16
q-6 12 -6 69q-2 78 6 141q0 1 1 3v16l-2 -1v-1q-20 -16 -40 -41q-15 -19 -27 -42t-12 -33q0 -9 -8 -9q-6 0 -10 8q-2 4 -2 14.5t4 20.5q10 30 34 61q28 36 64 63q8 6 8 6.5t4 22.5q13 61 32 119q23 67 48 117q17 34 32 46q9 6 17 6t12 -6q5 -8 -6 -35q-8 -18 -15 -33
q-31 -67 -52 -137q-19 -64 -17 -66l17 8q41 18 113 42q28 9 28.5 10t4.5 19q15 80 44 126q9 13 22 23q5 5 12.5 8t18 3.5t15.5 -1.5q19 -7 28.5 -25t7.5 -42q-2 -15 -10 -34q-16 -39 -51 -65q-21 -16 -40 -25q-5 -2 -6 -4.5t-3 -19.5q-5 -40 -12 -162q-10 -147 -12 -164
q0 -19 -13 -26t-24 2t-9 28z" />
    <glyph glyph-name="I" unicode="I" horiz-adv-x="154" 
d="M11 -2q-6 1 -8.5 6t-0.5 10q4 14 48 28q15 5 20 6l4 1v24q0 126 10 216q5 46 16.5 106.5t20.5 86.5q3 10 2 10q-4 2 -42 -9q-33 -9 -55 -22q-15 -10 -22 3q-5 10 9 24q18 17 61 31q84 28 157 12q23 -5 28 -15q5 -11 -4 -21q-5 -5 -12 -5t-30 3q-15 2 -29 2h-15l-1 -10
q-2 -11 -8 -32q-12 -49 -22 -111q-16 -96 -17 -246v-40h15q32 1 43 -5q7 -3 9 -7q6 -8 3 -16.5t-13 -11.5q-5 -2 -35 -2h-29l-6 -3q-9 -5 -19 -2q-6 2 -43 -6q-29 -7 -35 -5z" />
    <glyph glyph-name="J" unicode="J" horiz-adv-x="228" 
d="M66 19q-21 5 -38 25q-11 13 -18 32q-5 14 -7 26t-2 30q0 42 13 74q7 17 17 30q11 15 27 26q20 14 46 15q19 1 25 -4q9 -5 8 -13t-6.5 -11t-20.5 -3q-22 -2 -34 -10q-14 -9 -23 -22q-23 -31 -23 -82q0 -26 7 -45q6 -14 15 -23.5t17 -9.5q13 0 30 19q35 41 61 171
q10 48 27 145q11 64 19 96l2 8t1.5 6.5t-0.5 2.5l-6 -7q-30 -38 -56 -61q-30 -27 -48 -37.5t-35 -10.5q-22 0 -36 15q-16 16 -16 38q0 13 8 19q4 3 8 3q11 0 19 -16q7 -15 15 -19q13 -7 33 7q34 23 84 78q10 11 31 33t25 31q12 23 26 23q11 0 16 -7t4 -19q-2 -8 -14 -45
q-18 -53 -36 -155q-31 -180 -51 -239q-29 -86 -67 -107q-24 -14 -47 -7z" />
    <glyph glyph-name="K" unicode="K" horiz-adv-x="268" 
d="M91 284q1 9 0.5 9t-11.5 -8l-11 -8l4 -1h11l6 -1zM100 -8q-11 6 -17 42q-2 18 -3 47q-1 80 6 157q1 12 0 13t-15 1.5t-21 -0.5q-8 -1 -19.5 -4.5t-17 -3.5t-9 3.5t-3.5 8.5q0 9 15 25q16 18 44 39q38 30 39 32t3 19q13 83 37 184q10 43 21 56q3 5 10.5 6.5t12.5 -0.5
q9 -5 9.5 -20.5t-8.5 -52.5q-11 -48 -19 -83q-11 -55 -11 -62q0 -2 2 -1q12 8 124 109q66 58 78 62.5t15 -6.5q2 -7 -12.5 -24t-56.5 -59q-77 -75 -131 -120q-29 -24 -29 -27q-5 -19 -8 -67l-1 -8l8 -7q20 -15 44 -47q23 -31 40 -61q28 -48 46 -95q8 -36 -4 -33
q-14 3 -28 31l-2 4q-31 71 -64 121q-9 14 -19 27.5t-16.5 21.5t-7.5 7t-4 -52q-1 -20 -1 -61q-1 -51 -4 -92q-1 -26 -12 -31q-5 -2 -11 1z" />
    <glyph glyph-name="L" unicode="L" horiz-adv-x="254" 
d="M63 46q-15 4 -27 14q-48 40 -30 168q11 81 49 200q45 141 56 161q8 14 16 19q5 3 10 3q20 0 17 -27q-1 -12 -9 -35q-51 -144 -74 -237q-17 -68 -22 -112q-1 -10 -1 -32.5t1 -30.5q4 -30 20 -45q10 -10 24 -10q35 0 87 52q31 31 63 79q20 29 31 18q10 -9 -4 -31
q-48 -71 -99 -114q-38 -33 -72 -40q-19 -4 -36 0z" />
    <glyph glyph-name="M" unicode="M" horiz-adv-x="435" 
d="M390 26q-7 4 -13 12q-13 20 -20 74q-2 13 -2 40.5t1 40.5q8 74 53 237q27 97 29 114q1 12 1 13q-1 0 -8 -5.5t-13 -12.5q-42 -46 -86 -119q-51 -86 -102 -186q-30 -59 -46 -65q-4 -2 -10 -1q-17 2 -23 19q-3 7 -2.5 20.5t7.5 56.5q12 74 11 75q0 1 -4 -5t-10.5 -16.5
t-13.5 -22.5q-24 -41 -48 -89q-13 -27 -25 -55q-16 -36 -23 -46q-8 -9 -17 -9q-6 0 -12.5 4t-9.5 10q-4 11 -3 29q1 8 4 29q11 65 19 119q23 151 36 215q8 45 20 56q9 8 18 4q7 -3 8.5 -13t-0.5 -38q-4 -36 -16 -111q-11 -66 -15 -92l-14 -94q1 1 15 25q42 77 79 124
q21 27 27 30q8 3 16 0q10 -4 14 -21q2 -7 1.5 -24.5t-1.5 -28.5q-2 -11 -7 -41.5t-4.5 -30.5t2 2t6.5 10t12.5 21t21.5 38q44 75 65 109q19 31 34 52q33 45 59 75q7 9 13 17q16 21 28 27q7 3 14 3q19 0 27 -20q7 -18 -2 -59q-3 -15 -29 -111q-34 -125 -43 -178
q-8 -45 -8 -79q1 -50 12 -83q9 -27 2 -37q-6 -10 -17 -9q-6 0 -8 1z" />
    <glyph glyph-name="N" unicode="N" horiz-adv-x="272" 
d="M23.5 -14q-9.5 2 -13.5 9q-5 7 -8 22q-3 17 2 128t11 178q9 84 18 126q9 45 20 61t22 8q8 -5 7.5 -25t-11.5 -91q-13 -90 -20 -248l-1 -37q0 1 7 25q38 142 71 222q29 71 60 118q20 29 31 35q6 3 13 3q14 0 22 -9q14 -15 14.5 -55.5t-13.5 -142.5q-14 -106 -8 -153
q3 -23 9 -35q5 -11 11.5 -12.5t20.5 4.5q18 9 23.5 2.5t-4.5 -21.5q-15 -21 -37 -26q-6 -1 -14 -1q-33 2 -48 49q-9 31 -9 78q0 49 10 122q12 87 12 130q1 28 -2 28q-1 0 -6 -4q-14 -12 -38 -62t-45 -112q-20 -62 -46 -157q-28 -105 -34.5 -126.5t-9.5 -25.5q-7 -7 -16.5 -5
z" />
    <glyph glyph-name="O" unicode="O" horiz-adv-x="281" 
d="M124 128q20 6 45 30q35 35 56 74q39 78 34 162q-4 73 -31 107q-10 12 -28 20q-8 4 -22 4l-13 1l-13 -5q-23 -8 -40 -22q-42 -37 -61 -107l-1 -5q2 2 12 18q15 26 30 39q25 22 37 10q7 -7 3 -19q-6 -17 -22 -41q-32 -47 -48 -94q-14 -43 -14.5 -84.5t14.5 -64.5
q8 -12 19 -18t22 -7t21 2zM85 83q-10 1 -23 7q-21 11 -34 29q-19 24 -25 64q-2 11 -2 33t2 35q4 28 11 51q3 11 1.5 12.5t-3 4.5t-4.5 8q-6 8 -5 26q3 40 21 81.5t44 69.5q31 32 64 43q17 5 37 5q26 -1 42 -9q17 -8 28 -19q31 -34 41 -101q6 -39 2 -81q-7 -66 -37 -129
q-37 -77 -90 -111q-12 -8 -29 -15q-8 -3 -21.5 -4t-19.5 0z" />
    <glyph glyph-name="P" unicode="P" horiz-adv-x="216" 
d="M119 253q4 2 12 8q32 25 59 107q22 67 22 121q0 19 -3 33q-5 23 -10 32q-2 2 -4 2q-5 0 -14.5 -9t-17.5 -21q-26 -39 -54 -124q-6 -19 -16 -54t-10 -38l6 12q10 21 22 35q14 15 32 23q18 9 32 9q6 0 9 -6q7 -13 -11 -19q-38 -13 -56 -47q-4 -9 -7 -15q-5 -15 -6 -29.5
t4 -20.5q3 -3 11 1zM18.5 46.5q-9.5 3.5 -13.5 16.5q-4 12 -4 88q0 189 31 341q14 69 24 96q10 29 24 36q15 8 23 -6q2 -4 1 -15q0 -15 -9 -46q-24 -89 -36 -189q-6 -59 -6 -66l8 22q45 157 95 234q17 25 32 32q25 12 45 -8q14 -13 22 -54q2 -11 2 -40t-2 -44
q-10 -70 -36.5 -132t-58.5 -87q-16 -13 -34.5 -16t-31.5 6q-20 13 -21 45q0 4 -1 0q-1 -2 -2 -7q-2 -12 -7 -41q-15 -78 -15 -116q0 -24 -1 -31q-3 -12 -11 -17t-17.5 -1.5z" />
    <glyph glyph-name="Q" unicode="Q" horiz-adv-x="323" 
d="M230 158q28 49 50 108q28 75 38 152q6 44 2 82q-6 56 -27 87q-5 8 -13 14q-12 10 -31 11q-10 0 -20 -3q-38 -13 -59 -58q-18 -38 -13 -85q2 -20 3 -20t12 11.5t18 14.5t13.5 2.5t9.5 -2.5q13 -9 0 -29q-5 -8 -14 -23q-10 -15 -12 -19l-3 -5l2 -6q4 -13 -2 -20
q-6 -8 -15 -7h-5l-4 -8q-22 -42 -38 -93q-9 -29 -11 -40q0 -2 1.5 -2.5t6.5 -1.5q33 -7 68 -36q13 -11 25 -21t13 -10t5 7zM150 72q12 5 28 18q21 20 21 24q0 1 -8.5 8t-21.5 18q-26 22 -39 29q-22 11 -26 8q-1 -2 -1 -25t1 -32q6 -41 23 -49q4 -2 11 -1.5t12 2.5zM114 26
q-24 8 -39 34q-17 28 -18 82l-1 17l-3 -3q-9 -9 -16 -24q-3 -7 -3 -15.5t-2 -11.5q-6 -5 -14 -3.5t-13 9.5q-11 19 4 48.5t44 46.5l9 5l1 7q5 26 17 64q15 46 37 90l14 28l-3 8q-6 15 -10 34q-1 8 -1 31t3 37q11 56 49 93q22 21 51 30q19 5 39 1q17 -2 31 -13q15 -11 24 -26
q28 -45 28 -124q0 -54 -14 -122q-21 -107 -66 -201q-9 -18 -9 -19q0 -2 18 -11.5t27 -12.5q18 -6 30 -3q10 3 18 15q9 15 13.5 11t1.5 -16q-3 -14 -14.5 -24.5t-27.5 -14.5q-10 -2 -25 0q-24 4 -48 15q-14 7 -14.5 7t-5.5 -7q-19 -29 -45 -47q-16 -11 -31 -15q-21 -5 -36 0z
" />
    <glyph glyph-name="R" unicode="R" horiz-adv-x="250" 
d="M126 310q34 17 73 55q61 61 80 140q8 36 -1 48q-2 2 -7.5 1.5t-13.5 -4t-18 -14.5q-41 -41 -87 -144q-8 -16 -16.5 -36.5t-13.5 -35t-4 -14.5t8 4zM289 17q-20 3 -38 15q-15 10 -27 23q-26 29 -66 111q-24 48 -46 79q-5 7 -8 7t-4 -2q-3 -1 -29 -89q-22 -73 -24 -89
q-1 -14 -6 -23q-8 -15 -25 -8q-8 4 -13 14q-3 9 0 42q13 122 44 268q19 90 40 157q27 90 51 100q9 3 15 -1.5t4 -14.5q-1 -9 -8 -36q-4 -12 -7 -23t-10 -35q-23 -74 -44 -176l-4 -21l3 -4l4 -3l2 7q43 113 98 198q35 52 64 70q14 8 29 8q11 0 17 -2q13 -6 21 -20
q6 -12 6 -38q0 -19 -3 -35q-24 -98 -103 -173q-40 -38 -79 -57l-13 -6l5 -6q20 -30 45 -77q32 -60 47 -80q29 -41 58 -51q15 -6 34 -6q17 0 15 -8q-2 -9 -16 -14q-11 -3 -29 -1z" />
    <glyph glyph-name="S" unicode="S" horiz-adv-x="327" 
d="M107.5 27.5q6.5 1.5 10.5 2.5q4 2 20 14.5t23 19.5q43 40 70 107q10 24 10 29q0 2 -17 -5.5t-38.5 -18t-33.5 -18.5q-66 -41 -77 -88q-5 -19 1.5 -30.5t23.5 -12.5q1 -1 7.5 0.5zM98 0q-40 9 -46 45.5t26 77.5q17 23 43 41q41 30 98 53l7 3q0 2 -75 5q-55 2 -85 12
q-50 16 -62 54q-2 5 -2.5 9t-0.5 16q0 17 3 27q4 17 12 32q30 60 102 133q71 71 117 83q18 4 34 0q29 -6 41 -42q10 -33 -5 -97q-10 -42 -25 -69t-28 -27q-7 0 -9 7q-2 5 6 15q21 26 33 80q11 49 5 75q-3 16 -11.5 24t-19.5 6q-32 -6 -92 -66q-28 -29 -58 -68t-44 -65
q-23 -43 -12 -64q14 -25 101 -29q66 -2 78 -4q34 -5 48 -20l6 -6q0 -1 0.5 -1t2.5 0.5t5.5 1.5t8.5 2q34 11 42 11q12 -1 14 -6.5t-8 -12.5q-7 -3 -50 -16l-8 -3v-9q-3 -28 -25 -74.5t-49 -79.5q-22 -26 -39 -38q-18 -13 -33 -16q-6 -1 -23 -1t-23 1z" />
    <glyph glyph-name="T" unicode="T" horiz-adv-x="176" 
d="M95 49q-10 5 -14 17q-1 5 0 26q8 96 28 190q21 93 49 172q4 12 3.5 12.5t-13.5 -2.5q-52 -13 -79 -11q-30 3 -46 16q-22 17 -22 45q0 22 11 41q9 15 23 22q10 6 19 1.5t9 -14.5q0 -4 -7 -17q-10 -20 -9 -32q0 -10 7 -15q9 -6 34.5 -5.5t54.5 6.5q33 8 35 11q1 1 6 11
q21 53 44 53q15 0 15 -17q0 -6 -3 -16q-1 -3 -1.5 -5.5t-0.5 -4v-1.5q1 0 24 9q59 22 149 50.5t138 39.5q45 11 62 11q21 -1 22 -24q0 -9 -2 -14q-8 -15 -19 -22q-10 -5 -20 -0.5t-13 14.5q-1 5 -3 5q-5 1 -76.5 -20.5t-140.5 -44.5q-136 -45 -140 -52q-6 -8 -26 -73
q-23 -69 -38 -140q-21 -94 -27 -180q-2 -22 -3 -26q-2 -10 -14 -16q-8 -4 -16 0z" />
    <glyph glyph-name="U" unicode="U" horiz-adv-x="318" 
d="M279 19q-12 6 -22 36q-7 19 -13 51q-7 41 -1 105q5 64 24 140q3 13 2 13q0 1 -18 -37q-35 -72 -48 -96q-34 -61 -53 -85q-3 -4 -6 -9q-10 -14 -30 -33q-19 -18 -37 -26q-26 -12 -49 2q-10 7 -17 21q-27 57 18 206q17 57 68 178q28 68 34 74q6 8 14.5 8.5t15 -6t6.5 -18.5
t-14 -44q-10 -25 -24 -59q-33 -80 -48 -125q-36 -108 -33 -165q1 -21 6 -30q5 -8 10 -8.5t17 6.5q34 17 77 76q25 36 58 93q14 25 42 80t32 65q14 43 21 53q7 9 16 7q15 -2 17 -16q3 -16 -15 -73q-23 -76 -35 -152q-9 -59 -7 -127q2 -56 9 -80q4 -14 1 -19q-7 -11 -18 -6z
" />
    <glyph glyph-name="V" unicode="V" 
d="M55 104q-11 4 -19 19q-6 11 -9 33q-5 31 -9 140q-5 106 -14 176q-5 36 -1 50q2 6 8 10.5t12 3.5q16 -4 23 -32q7 -32 14 -130q2 -33 5 -87q5 -131 10 -136q1 -1 6 5.5t11.5 16.5t12.5 19q21 39 44 89q50 113 87 257q22 83 35 115q20 54 50 65q7 2 17 2q21 0 39 -17
q12 -12 11 -21q-1 -15 -17 -15q-7 0 -21 10q-13 10 -23 5q-10 -4 -19 -18q-6 -10 -18 -41t-25 -79q-32 -122 -61 -200q-16 -45 -43.5 -106.5t-43.5 -89.5q-8 -14 -19.5 -26.5t-19.5 -16.5q-10 -5 -23 -1z" />
    <glyph glyph-name="W" unicode="W" horiz-adv-x="391" 
d="M6 94q-2 6 -2.5 24t2.5 32q11 76 48 160q6 14 22 47q40 85 50 119t6 54q-1 10 -5 11q-13 4 -35 -18q-18 -17 -38 -48.5t-29 -56.5q-7 -17 -10 -19q-12 -5 -14 9q-2 17 23.5 61.5t51.5 71.5q26 26 49 31q23 6 40 -11q16 -15 14 -47q-1 -32 -13.5 -68t-44.5 -104
q-35 -73 -50 -116q-12 -36 -18 -72q0 -5 -1 -17q-3 -28 3 -29q4 -1 12 6q16 13 42 48t46 69q13 23 32.5 62.5t25.5 55.5q8 21 13.5 28t14.5 7t14 -5.5t5 -19.5q0 -12 -3 -26q-16 -75 -15 -132q1 -35 10 -42q16 -12 54 42q44 61 63 134q14 57 11 112.5t-23 96.5
q-11 21 -31 34q-11 7 -12 13q-2 7 5 11q17 8 41 -17q12 -12 21 -32q27 -54 25 -132q-1 -41 -10 -87q-13 -61 -39 -112q-36 -68 -64 -90q-24 -19 -44 -19q-28 0 -42 30q-12 25 -11 75v12.5v8.5v3q-1 0 -7 -13q-19 -36 -36 -64q-18 -31 -50 -70q-15 -19 -34 -29t-37 -4t-26 32
z" />
    <glyph glyph-name="X" unicode="X" horiz-adv-x="301" 
d="M23 28q-9 5 -7 29.5t14 58.5q29 88 84 179l10.5 17.5t-4 37t-9.5 61t-6 34.5q-8 40 -23 61q-4 6 -7 6q-6 0 -15 -7.5t-16 -18.5q-15 -23 -17 -50q-1 -12 -5 -14q-12 -7 -18 5q-3 5 -3 14q0 27 21 61q4 7 15.5 21.5t16.5 17.5q24 18 50 5q19 -9 33 -44q11 -28 20 -87
q6 -43 7 -43l2.5 2.5t6.5 7.5t9 11q25 33 44 54q33 39 71.5 77t56.5 50q16 11 25 5q9 -4 6 -15q-2 -8 -29 -31q-83 -72 -156 -165q-29 -37 -28 -42q0 -3 4 -22q24 -108 70 -156q17 -18 34 -25q20 -7 32 -5q5 0 15 4q13 4 22 1q9 -5 5 -18q-3 -11 -28 -23q-27 -12 -52 -6
q-17 5 -36 18q-66 45 -99 165q-4 14 -4.5 14.5t-7.5 -12.5t-17 -31t-16 -31q-47 -97 -57 -156q-3 -14 -6.5 -15.5t-7.5 0.5z" />
    <glyph glyph-name="Y" unicode="Y" horiz-adv-x="396" 
d="M98 14q41 9 87 54q31 32 61 77q40 60 37 63q-1 1 -22 -0.5t-32 -3.5q-49 -6 -86 -23q-45 -21 -73 -51.5t-32 -63.5q-1 -10 0.5 -19.5t3.5 -12.5q5 -11 15 -16q18 -9 41 -4zM66 -33q-31 5 -54 39q-7 11 -10 33q-1 13 1 28q4 24 12 40q18 35 50 62q64 53 155 64q37 5 65 4
l13 -1l3 7q17 34 38.5 92.5t31.5 96.5q16 64 11 95q-1 10 -4 11.5t-11 -2.5q-18 -8 -41 -39q-11 -14 -65 -96q-67 -100 -110 -140q-30 -28 -54 -36q-42 -12 -66 13q-19 22 -19 66q0 39 13 88q16 61 54 153q8 20 13 26q9 14 24.5 9t14.5 -22q0 -6 -3 -15q-4 -10 -19 -49
q-49 -130 -51 -183q-1 -24 4 -35q5 -10 16 -9q25 2 62 38q40 40 117 152q51 74 73 96q17 16 31 23q13 6 27 5q12 0 22 -8q13 -10 17 -35q8 -41 -11 -114q-22 -90 -63 -182q-7 -13 -6.5 -13.5t12.5 -4.5q21 -7 33 -15q7 -5 9 -11.5t-2 -10.5q-3 -4 -8.5 -3t-20.5 7
q-22 10 -33 12q-2 0 -4 -3t-12 -21q-48 -88 -102 -142q-70 -71 -137 -71q-11 0 -16 1z" />
    <glyph glyph-name="Z" unicode="Z" horiz-adv-x="448" 
d="M76 75q-13 3 -24 12q-10 7 -16 24q-3 8 -3 26.5t3 31.5q11 54 49 108q45 67 151 165q70 67 67 67q-3 1 -23 -5t-32 -11q-10 -4 -15.5 -5.5t-8.5 -3.5q-8 -4 -43 -16q-29 -9 -55 -15q-15 -3 -37 -3t-30 2q-48 13 -56 46q-7 27 9 44q10 12 21 1q3 -2 7 -15q7 -19 13 -23
q32 -21 120 2q11 2 52 12l32 8q36 9 60 12q18 2 26 -6q6 -5 7 -11q4 -19 -27 -56q-22 -27 -56 -58q-87 -82 -134 -143q-19 -25 -32 -51q-20 -41 -22 -73q0 -12 2 -16q7 -15 34 -11q58 8 206 107q2 1 5 4q16 10 26.5 16t30.5 16t34 13.5t29.5 2.5t24.5 -11q8 -7 9 -17
q1 -17 -5.5 -17t-12.5 12q-6 10 -11.5 13.5t-16.5 2.5q-16 -1 -39 -13q-29 -14 -91 -60q-39 -29 -80 -54q-49 -30 -83 -44q-40 -15 -65 -10z" />
    <glyph glyph-name="bracketleft" unicode="[" horiz-adv-x="168" 
d="M126 58q-14 2 -26 8q-10 5 -20 17t-15 25q-5 16 -6 50q-1 38 9 123q6 53 9 87q10 97 26 134q9 22 23 37q20 19 48 26q25 7 39 5q11 -1 16.5 -11.5t0.5 -19.5q-6 -11 -32 -16q-20 -4 -29.5 -9.5t-16.5 -17.5q-9 -14 -15 -38q-7 -29 -16 -116q-5 -46 -8 -72
q-12 -110 -6 -141q3 -13 7 -21q11 -17 24 -26q12 -9 12 -14q0 -13 -24 -10z" />
    <glyph glyph-name="backslash" unicode="\" horiz-adv-x="271" 
d="M268 95q-7 1 -13.5 8.5t-20.5 32.5q-46 76 -74 140q-8 18 -34 82q-59 148 -73 178q-13 28 -8 39q4 12 16 12q11 0 21 -11q12 -13 44 -92q76 -190 92 -224q20 -41 58 -105q19 -31 19 -39q0 -16 -15 -21q-7 -2 -12 0z" />
    <glyph glyph-name="bracketright" unicode="]" horiz-adv-x="180" 
d="M49 68q-12 2 -22 11t-6 18t27 11q22 4 28 17q12 22 15 106q2 46 4 96q3 49 9 98q7 61 5 79q-2 24 -10 35t-32 24q-23 12 -22 25q2 13 17 13q17 -1 50 -19q21 -11 33 -34q10 -19 10 -49q1 -25 -5 -77q-5 -42 -6 -65q-4 -50 -7 -128q-2 -74 -10 -101q-8 -29 -25 -45
t-40 -16q-9 0 -13 1z" />
    <glyph glyph-name="asciicircum" unicode="^" horiz-adv-x="209" 
d="M80 403q-7 4 -7 13q0 12 27 44q37 45 50 51q7 4 15 1q15 -5 21 -25q2 -7 5 -28t3 -28q0 -8 -4 -17.5t-10 -12.5q-13 -6 -24 3q-5 4 -10 38q-2 16 -3 16q0 1 -4 -3.5t-11.5 -13.5t-15.5 -20q-17 -20 -25 -20q-4 0 -7 2z" />
    <glyph glyph-name="underscore" unicode="_" horiz-adv-x="430" 
d="M294 82q-9 1 -49 3q-77 4 -110 5q-30 1 -36 2q-14 2 -20.5 10t-1.5 18q5 12 24 15q17 3 135 -3q47 -3 100 -3.5t59 -1.5q7 -1 12.5 -8t5.5 -14q0 -9 -7 -16q-6 -5 -13.5 -6t-45.5 -1h-53z" />
    <glyph glyph-name="grave" unicode="`" horiz-adv-x="153" 
d="M111 401q-5 2 -20 22q-13 17 -24.5 30.5t-15.5 19.5q-10 17 -1 28q5 6 16 6q13 0 29 -16q10 -10 26.5 -31t20.5 -28q4 -9 0.5 -18.5t-12.5 -13.5q-3 -1 -9.5 -1t-9.5 2z" />
    <glyph glyph-name="a" unicode="a" horiz-adv-x="199" 
d="M57 250q15 11 30 30q22 27 37 55l3 5l-4 3q-5 6 -12 2q-21 -14 -40.5 -43t-22.5 -53q-1 -4 0 -4q2 0 9 5zM142 194q-12 6 -17 19q-5 14 -4 46q0 23 1.5 31.5t1 8t-5.5 -8.5q-18 -29 -36 -52q-13 -17 -25 -26q-12 -8 -23 -8q-12 -1 -22 8q-7 7 -10 18q-5 25 10 62t42 65
q17 17 34 24q7 3 16 3.5t14 -2.5q9 -4 16 -14q2 -4 3 -2q0 1 1 7q3 15 12 24q7 7 16.5 5.5t13.5 -10.5q6 -12 4 -24q-1 -4 -5 -26q-12 -62 -12 -90q0 -17 0.5 -18.5t6.5 4.5q12 12 32 49q18 33 26.5 44.5t17.5 14.5q7 2 13 -1t6 -9q0 -3 -1 -5q-3 -5 -10 -5q-5 0 -15 -15
q-6 -9 -35 -66q-23 -44 -39 -51q-14 -6 -27 0z" />
    <glyph glyph-name="b" unicode="b" horiz-adv-x="196" 
d="M92 155q23 28 36 62q11 29 9 30q-2 3 -21 -15q-35 -34 -35 -70q0 -3 0.5 -7t1.5 -6t2 -2t7 8zM86 117q-6 1 -12 7q-12 11 -12 32q0 34 25 68q19 27 48 43l7 4l1 6q0 5 -0.5 14t-2.5 10q0 1 -5 -1q-12 -5 -27 -24t-26 -43q-21 -41 -26 -69q-4 -20 -9 -29.5t-11 -7.5
q-7 2 -10 12q-13 34 -2 149q7 77 27 146q34 117 92 194q17 23 30 23q15 0 13 -17q0 -5 -22 -49q-42 -85 -60 -137q-18 -55 -27 -111q-9 -51 -12 -90q-1 -8 -1 -13l-1 -6l7 13q27 52 54 80q15 15 29 15t24 -10q11 -12 12 -36l1 -11l4 -1q8 -2 10 -6q1 -2 -1 -5q-2 -4 -10 -5
h-5l-2 -12q-11 -51 -37 -95q-18 -31 -35 -37q-5 -2 -14.5 -2.5t-13.5 1.5z" />
    <glyph glyph-name="c" unicode="c" horiz-adv-x="139" 
d="M23 140q-10 3 -19 12q-10 10 -14 26q-2 6 -2 25t3 31q8 38 28 74q29 53 58 67q14 7 26.5 4t17.5 -14q2 -5 1 -17q0 -22 -10 -42q-8 -16 -14 -16q-9 0 -10 6q-1 4 4 13q7 15 10 26v3l-7 -6q-22 -20 -40 -56q-21 -43 -21 -74q-1 -16 7 -20q9 -5 32 8t42 34t46 66
q11 17 16.5 23t10.5 6t5 -5q0 -6 -4 -6q-3 0 -12 -14l-17.5 -28l-17.5 -28q-32 -46 -48.5 -64.5t-34.5 -27.5q-21 -10 -36 -6z" />
    <glyph glyph-name="d" unicode="d" horiz-adv-x="169" 
d="M46 211q15 16 31 38q21 30 33 54q-10 74 -42 3q-16 -36 -24 -70q-8 -27 -8 -32q0 -2 10 7zM128 44q-15 3 -26 16q-10 14 -17 46q-8 41 8 121q2 12 2 13l-1.5 -2t-4 -5.5t-5.5 -7.5q-28 -43 -42 -55q-15 -14 -27 -11q-16 3 -22 16q-7 16 -1 46q17 77 48 123q17 27 35 35
q6 3 15 4q13 1 22.5 -6.5t13.5 -19.5l2 -5q29 79 51 122q12 25 26 46q29 43 45 43q5 0 7.5 -3t2.5 -9q0 -10 -7 -26q-4 -7 -18 -38t-22 -49q-23 -49 -46 -117q-24 -69 -32 -125q-6 -35 -6 -72q0 -32 3 -44q4 -15 9 -18q9 -4 9 -9q0 -4 -7 -7t-15 -2z" />
    <glyph glyph-name="e" unicode="e" horiz-adv-x="153" 
d="M69 281q15 10 28 23q28 28 28 51q0 6 -2 7t-9 -2q-8 -4 -21 -20q-15 -19 -23 -34q-11 -22 -11 -29q0 -1 10 4zM20 205q-10 19 -10 46q0 52 32 99q17 24 42 36q17 8 31 7q15 -1 25 -11q6 -6 8 -13q6 -18 -2.5 -40t-27.5 -42q-24 -25 -53 -38l-9 -5l1 -4q2 -16 14 -21
q7 -3 18 2q33 17 69 68q23 32 34 38q8 4 11.5 0.5t-5.5 -10.5q-6 -5 -16 -20q-30 -48 -47 -69q-19 -20 -37.5 -33.5t-41.5 -14t-36 24.5z" />
    <glyph glyph-name="f" unicode="f" horiz-adv-x="151" 
d="M98 332q68 84 88 153q10 34 4 49q-3 5 -5 5q-8 0 -25 -20q-44 -51 -72 -162q-11 -42 -11 -46q0 -1 3.5 2t8.5 8.5t9 10.5zM75 15q8 16 8 46t-8 52t-19 36l-3 5l-1 -11q-2 -34 2 -68q3 -26 9 -46q6 -18 9 -18q1 0 3 4zM60 -35q-11 2 -21 12q-15 16 -25 54q-15 63 -6 153
q6 53 20.5 122.5t30.5 116.5q15 46 36 83.5t39 51.5q28 20 50.5 15.5t26.5 -31.5q4 -21 -12 -64.5t-43 -87.5q-19 -30 -40 -58t-31 -36q-4 -3 -10 -4q-2 0 -5 -15q-10 -50 -10 -56q0 -1 0.5 -1t2 0.5t3.5 1.5l6 3q60 31 105 90q13 18 20 18q1 0 3 -2t1 -10t-5 -14
q-16 -28 -51.5 -59.5t-73.5 -51.5l-15 -8l9 -9q37 -38 45 -101q2 -14 2 -36t-2 -31q-5 -24 -18 -36q-14 -13 -32 -10z" />
    <glyph glyph-name="g" unicode="g" horiz-adv-x="222" 
d="M50 219q12 2 33 18q34 26 73 77q6 8 4 9.5t-2 8.5q0 14 -9 24q-12 12 -27 4q-6 -3 -18 -15.5t-19 -21.5q-19 -25 -31 -52.5t-12 -45.5q0 -4 1 -6t3 -1q1 0 4 1zM16 -139q10 7 22 26q37 57 72 172q7 21 21 72t13 51q-1 1 -23.5 -13.5t-35.5 -25.5q-71 -57 -95 -126
q-11 -35 -10 -79t14 -64q6 -9 13 -13q5 -2 9 0zM12 -174q-22 4 -35 31q-12 26 -15 67q-6 78 31 143q17 30 45 59q41 42 98 75l15 8l4 14q4 14 11.5 44t11.5 44.5t4 15.5l-2.5 -3t-6 -7.5t-7.5 -10.5q-40 -54 -76 -90q-29 -30 -49 -34q-13 -3 -23 0q-12 5 -17.5 16.5
t-4.5 29.5q2 50 45 114q21 31 40 44q30 21 58 9q12 -6 20 -20.5t9 -31.5l1 -11l7 9q10 13 18 13q9 0 13 -10q7 -16 -4 -98q-2 -14 -1.5 -14t6.5 1q22 2 21 -4q-1 -8 -26 -18l-5 -3l-3 -13q-13 -66 -45 -165q-29 -93 -63 -154q-21 -36 -39 -45q-17 -8 -36 -5z" />
    <glyph glyph-name="h" unicode="h" horiz-adv-x="253" 
d="M17 224q6 57 19 107q26 93 68 163q15 26 27 40q20 21 35 21q9 0 13 -8t-9 -30q-6 -10 -10.5 -19t-11.5 -21q-31 -49 -52 -109q-18 -55 -27 -103q-2 -12 -5 -47t-3 -46v-10l10 21q31 64 71 114q13 17 20 26q14 20 29 18q16 -1 21 -20q2 -7 1 -19q-3 -18 -22 -68
q-22 -54 -23 -68q-1 -10 0 -12q2 -2 11 3t18 14q22 22 59 81q18 30 23 38q13 17 20 8q4 -4 -5 -15q-14 -17 -34 -52q-28 -48 -46 -68q-19 -21 -31 -29q-4 -3 -9 -7q-12 -8 -24 -7q-18 1 -25 18q-5 12 -4 29q2 22 24 77q19 48 18.5 49t-8.5 -7.5t-18 -22.5t-18 -25
q-41 -63 -61 -128q-2 -9 -9 -12q-11 -3 -19 1.5t-11.5 15t-5.5 22.5t-1 27t1.5 25.5t2 21.5t1.5 13z" />
    <glyph glyph-name="i" unicode="i" horiz-adv-x="120" 
d="M79 399q-12 5 -12 21q0 7 3 13q7 14 22 23.5t25 6.5q9 -3 12.5 -10.5t0.5 -15.5q-2 -5 -15 -15q-9 -7 -16 -14q-12 -11 -20 -9zM34 150q-15 4 -21.5 18.5t-6.5 41.5q0 44 18 96q14 42 27 51q4 3 11 3q12 1 18 -8q3 -5 3 -13t-6 -23q-18 -45 -23 -77q-2 -12 -2 -28.5
t2 -20.5l2 -4l4 3q8 4 25 27q16 20 34 52q20 34 28 44t16 11q7 0 10 -5q3 -6 -6 -18t-29 -47q-35 -62 -58 -85q-10 -10 -16 -13q-15 -9 -30 -5z" />
    <glyph glyph-name="j" unicode="j" horiz-adv-x="91" 
d="M53 405q-8 4 -10 11q-2 10 3 21q3 5 11 13.5t14 11.5q10 6 20 4q9 -2 12 -11q6 -13 -14 -29q-7 -6 -11 -11.5t-8 -7.5q-8 -6 -17 -2zM-138 -88q13 3 28 14q31 23 52 67.5t45 136.5q7 26 7 28t-11 2q-67 -4 -127 -64q-44 -45 -56 -94q-5 -23 0 -44q7 -26 24 -37
q19 -13 38 -9zM-150 -119q-30 5 -49.5 27.5t-23.5 57.5q-8 59 44 124q19 24 43 43q60 48 126 51l11 1l1 7q2 7 9 39q17 78 21 94q6 20 17 24q8 3 15 -1t9 -12q3 -12 -5 -57q-11 -67 -21 -101q0 -1 2 -2l8 -4q19 -10 30 -20q6 -6 7 -12q4 -10 -3 -13q-8 -3 -25 9
q-23 15 -26 13q0 -1 -7 -27q-40 -161 -91 -212q-23 -23 -54 -29q-19 -4 -38 0z" />
    <glyph glyph-name="k" unicode="k" horiz-adv-x="201" 
d="M42 85q-6 4 -11 13t-6.5 53.5t1.5 78.5q1 12 0.5 12.5t-11.5 -2.5q-15 -3 -20.5 1.5t-2.5 13.5q1 4 22 25l21 22l5 21q26 131 71 239q13 30 25 37q14 6 21 -6q4 -6 0.5 -20.5t-17.5 -59.5q-19 -55 -28 -87q-17 -59 -17 -65q0 -2 33 30.5t36 34.5q9 4 14.5 -1t3.5 -14
q-3 -9 -15.5 -23.5t-50.5 -53.5l-34 -34l-2 -15q-3 -14 -2 -15.5t3 -1.5q9 0 31 -8q42 -13 73 -36q16 -12 16 -20q-2 -13 -30 2q-12 7 -25 14q-36 20 -67 24l-5 1l-1 -7q-2 -33 -3 -87q0 -48 -2 -53q-4 -8 -10 -12q-8 -5 -16 -1z" />
    <glyph glyph-name="l" unicode="l" horiz-adv-x="168" 
d="M62 99q-45 17 -43 128q1 60 18 142q16 77 41 144.5t50 100.5q10 14 22 19.5t21 1.5q14 -6 6 -27q-4 -9 -18 -30q-31 -50 -58 -142q-24 -85 -33 -170q-2 -18 -2 -47.5t2 -42.5q4 -31 14 -36q3 -2 9 1q17 8 38 40q11 17 35 65q23 47 32 56q10 10 16 6q7 -5 -3 -21
q-7 -12 -22 -47q-18 -41 -36 -75q-27 -51 -56 -65q-7 -3 -17 -3t-16 2z" />
    <glyph glyph-name="m" unicode="m" horiz-adv-x="305" 
d="M52 147q-11 2 -18 10q-11 12 -13 42q-1 13 -0.5 45.5t1.5 46.5q6 47 15 66q7 15 21 17.5t20 -9.5q6 -11 0 -28q-16 -51 -12 -121q1 -19 2 -21t4 2q12 12 46 73q11 19 30 50q9 14 13 22q6 12 16 13t16 -9q10 -14 1 -58l-8 -38l1.5 2t5.5 8t10.5 16t17.5 28q19 30 24 33
q12 8 22 -6q12 -18 0 -79q-4 -23 -5 -29v-7l5 2q11 4 23 15q24 23 39 54q13 29 17 33q9 7 12 0q1 -2 -2 -6q-10 -13 -22 -37q-13 -25 -20 -35.5t-22 -27.5q-14 -15 -24.5 -21.5t-20.5 -5.5q-12 1 -19 10q-9 10 -9 29q-1 15 8 52l5 19l-3 -5t-8 -14t-10 -19q-30 -59 -37 -66
q-10 -10 -23 -3q-12 7 -15 27q-2 11 4 41l3 16l-5 -8.5t-12.5 -23.5l-16.5 -33q-17 -34 -24.5 -44.5t-15.5 -14.5q-9 -4 -17 -3z" />
    <glyph glyph-name="n" unicode="n" horiz-adv-x="251" 
d="M40 202q-22 7 -28 32q-4 20 2 52q14 68 37 80q3 1 9 1q10 -1 15 -9q4 -8 -1 -27q-12 -43 -14 -53.5t-2 -29.5l-1 -20l4 2q17 8 48 53q19 28 40 49q16 15 22 19q12 5 23.5 1.5t17.5 -15.5q12 -24 -5 -85q-3 -11 -2 -11q5 0 27 20q16 15 42 46q17 22 24 15q2 -2 2 -3.5
t-8 -9.5q-16 -16 -26 -33q-9 -16 -35 -43q-18 -18 -27 -24.5t-20 -6.5q-8 0 -17 8t-10 22q0 10 3 23q10 40 12 59l1 16q-2 2 -11.5 -4t-15.5 -14q-18 -20 -39 -54q-14 -23 -23 -35q-18 -21 -34 -21q-8 -1 -10 0z" />
    <glyph glyph-name="o" unicode="o" 
d="M152 328q10 2 21 4l12 2v6q1 7 0 18q-2 47 -38 56q-6 2 -18 1q-21 0 -40 -10q-18 -8 -29.5 -23.5t-8.5 -25.5q2 -5 3.5 -6t5.5 0q16 3 19 -13q0 -4 4 -6q7 -2 23 -5q4 0 21 0.5t25 1.5zM111 226q13 6 25 16q27 23 42 65q3 12 1 11q-2 0 -17 -3q-17 -4 -37 -7
q-8 -1 -30 -1l-21 1l-4 -12q-13 -39 5 -63q3 -5 7 -7.5t13 -2t16 2.5zM69 190q-12 3 -22 9q-16 10 -24 32.5t-4 50.5q4 26 12 41l3 5l-4 4q-6 8 -8 17q-4 17 5 34.5t27 29.5q21 14 46 20q12 3 27 3q19 -1 37 -9q35 -17 38 -66q1 -12 1 -18q-1 -4 -0.5 -4.5t2.5 -0.5
q15 4 33 4q11 0 16 -2q11 -5 7 -9q-1 -1 -19 -1q-24 -1 -40 -6q-1 0 -3 -8q-8 -36 -35 -75q-7 -10 -19.5 -22t-20.5 -16q-29 -18 -55 -13z" />
    <glyph glyph-name="p" unicode="p" horiz-adv-x="226" 
d="M92 237q16 22 38 34q15 8 31 9l10 1l1 6q3 16 3 50q0 20 -2 27t-3.5 8t-5.5 -1q-14 -7 -32 -36q-17 -26 -30 -60q-16 -40 -16 -45zM102 162q4 2 14.5 11t14.5 14q23 28 33 66l2 7l-6 -1q-19 -1 -37 -18q-32 -29 -32 -63q0 -11 4 -15q2 -3 7 -1zM12 -36q-9 5 -14 32
q-1 8 -1 55t1 66q9 130 47 241q13 37 25 51q9 11 18 11t12 -9q2 -5 2 -15q-1 -14 -19 -72q-18 -54 -28 -116q-7 -44 -9 -74v-10l5 21q29 109 64 179q24 47 37 61q13 13 26 13q9 -1 13 -3q14 -7 22 -29q11 -27 8 -62q-4 -50 -23.5 -95t-46.5 -68q-14 -11 -32 -14
q-23 -3 -37 11q-8 9 -11 22l-2 6l-2 -7q-5 -25 -9 -46q-8 -44 -9 -52.5t-3 -22.5q-2 -15 -3 -34q-1 -22 -2.5 -27.5t-7.5 -10.5q-9 -7 -21 -2z" />
    <glyph glyph-name="q" unicode="q" horiz-adv-x="208" 
d="M94 -18q17 14 26 59q2 12 2 37q0 33 -9 55l-6 11q-3 -4 -14.5 -60t-7.5 -90q2 -13 2 -15q1 -2 7 3zM69 -48q-22 7 -29 35q-2 6 -2 31t3 42q9 62 34 138q6 18 6 19l-1.5 -1t-4 -3.5l-4.5 -4.5q-10 -10 -19 -14.5t-17.5 -5t-13.5 1.5q-11 6 -16 17q-3 8 -4 18q-1 16 9 46
q15 46 40.5 86.5t48.5 55.5q7 5 16.5 8.5t20 3t16.5 -3.5q19 -9 28 -38q3 -8 3 -22q0 -19 -5 -25q-5 -5 -10 0q-2 2 -3 9q-2 19 -9 31q-6 10 -13 10q-9 0 -26 -18t-33 -45q-33 -58 -37 -96v-4.5t2 0.5q14 3 41 34q10 12 15 23q10 25 22 44q7 12 13 15q7 3 14 0q4 -1 6.5 -5
t2.5 -11q0 -17 -26 -89q-9 -23 -8 -24t23 13q32 22 70 67q17 20 23 24.5t10 2.5q11 -5 -2 -25q-11 -16 -31 -37q-43 -44 -91 -70q-14 -8 -15.5 -12t2.5 -9q23 -39 23.5 -90.5t-20.5 -91.5q-10 -20 -26 -28q-13 -6 -26 -2z" />
    <glyph glyph-name="r" unicode="r" horiz-adv-x="217" 
d="M22 185q-9 5 -12 14q-6 22 19 129q13 57 23 67q12 15 26 9q6 -2 10 -10q5 -10 -2 -31q-11 -34 -14 -56l-1 -4l2 3q2 3 6 10q22 45 53 77q14 14 26 20q31 16 54 -7q14 -14 16 -43q2 -33 -7 -42q-11 -10 -21 0q-5 6 -4 27q2 36 -9 44q-3 2 -10 2t-11 -2q-12 -7 -24 -22
q-44 -53 -63 -118q-13 -44 -25 -59q-6 -6 -15.5 -8.5t-16.5 0.5z" />
    <glyph glyph-name="s" unicode="s" horiz-adv-x="213" 
d="M113 123q22 11 36 32q17 26 17 49q0 9 -2 14q-2 4 -6 8t-6.5 4t-29.5 -24q-39 -34 -44 -61q-4 -20 6 -27q3 -2 10.5 -1.5t18.5 6.5zM90 86q-19 4 -28 22q-3 7 -3 18.5t2 19.5q12 36 67 80l8 7h-4q-4 1 -21 1q-26 1 -42 6q-23 8 -35 27q-16 25 -7 60.5t37 61t55 24.5
q10 -1 16 -4q22 -10 27 -50q4 -28 -6 -29q-4 0 -5.5 2.5t-1.5 10.5q-1 14 -8 27q-6 11 -14 11q-4 0 -12 -5q-17 -11 -30.5 -33.5t-13.5 -38.5q0 -11 8 -18q12 -10 55 -20q19 -4 28 -9l5 -1l16 11q28 19 53 31q23 12 28 9q6 -4 0 -10q-3 -3 -11 -6q-19 -7 -38 -18
q-38 -22 -38 -24l4 -4q7 -8 11 -21q3 -7 3 -20q0 -51 -35 -89q-20 -22 -44 -28q-15 -4 -26 -1z" />
    <glyph glyph-name="t" unicode="t" horiz-adv-x="184" 
d="M56 95q-30 9 -39 48q-14 54 5 142q21 101 54 191q1 3 2 5.5t1 4v1.5l-10 -3q-80 -20 -127 -14q-52 7 -64 47q-2 5 -2 14q0 14 4.5 23t11.5 9q8 0 13 -14q5 -17 11 -24q7 -10 25 -17q33 -13 88 -5q38 5 58 11l4 1l9 20q39 86 61 99q15 9 21 -3q4 -8 -10 -39
q-28 -62 -26.5 -63.5t73 18.5t111.5 33q53 17 84 24q25 6 35 1q8 -4 11 -12q4 -9 1 -21q-3 -11 -12 -15q-9 -5 -17 0q-7 5 -7 18q0 8 -3 9q-10 3 -34 -2t-117 -35q-43 -14 -72 -23q-57 -17 -63 -20q-1 -1 -13 -33q-48 -133 -63 -240q-2 -10 -2.5 -36.5t0.5 -36.5
q5 -42 18 -42q4 0 7 2q21 9 44 41q17 23 50 92q28 58 38 74q14 21 28 21q5 0 7 -2q5 -4 3 -8.5t-11 -6.5q-7 -1 -22 -23q-17 -24 -48 -90q-18 -40 -34 -64q-25 -38 -43 -50q-20 -13 -39 -7z" />
    <glyph glyph-name="u" unicode="u" horiz-adv-x="166" 
d="M114 208q-1 16 4.5 43t5.5 36l-4.5 -6t-9 -13t-5.5 -8q-12 -16 -26 -28q-13 -10 -24 -12q-6 -1 -13 1q-13 4 -21 21q-8 15 -5 36q3 27 12 54q12 32 24 49q17 22 30 11q7 -6 6 -17.5t-10 -38.5q-12 -35 -16 -59q0 -7 -0.5 -12.5t-0.5 -8.5t1 -3q5 0 22 18.5t29 36.5
q12 19 16 32q10 28 20 30q7 2 13 -2q10 -7 8 -22q-4 -25 -15.5 -67t-14.5 -67q2 -33 -11 -33q-11 -1 -14 20q-1 4 -1 9z" />
    <glyph glyph-name="v" unicode="v" horiz-adv-x="157" 
d="M63 174q-12 6 -19 21q-5 11 -6 19t-1 32q0 33 5 69q5 38 6 59q0 25 -3 26q-1 1 -7.5 -5.5t-11.5 -17.5q-12 -24 -9 -40q2 -11 -9 -12q-11 0 -13 11q-4 11 2 30q6 22 18 38q17 22 37 23q8 0 14 -2q21 -10 26 -52q2 -21 -3 -55q-6 -41 -6 -69q0 -42 3 -41q2 2 9 20
q7 16 20 61q17 63 29 88q15 32 41 58.5t49 33.5q10 3 19 1.5t13.5 -7t1.5 -11.5t-12 -4q-15 3 -30 -7q-42 -26 -64 -73q-12 -26 -27 -83q-24 -89 -39 -104q-9 -10 -21 -10q-7 0 -12 3z" />
    <glyph glyph-name="w" unicode="w" horiz-adv-x="211" 
d="M29 174q-17 7 -22 35q-2 10 -1 27q2 28 8 51q22 85 60 113q17 11 28 6q8 -3 7 -13q0 -5 -8 -16q-38 -57 -50 -138q-1 -7 -2 -16.5t-1 -15.5v-7q1 0 6 4q18 14 41 53q7 12 9 22q5 16 10.5 22.5t13.5 5.5q12 -1 15 -17q1 -6 0 -23q-1 -15 -0.5 -36t1.5 -24q2 -7 12 2
q21 22 32 92q2 13 2 43t-2 43q-6 41 -21 65q-7 12 -2 15.5t13 -4.5q19 -17 26 -70q6 -45 0 -92q-7 -51 -23.5 -86.5t-35.5 -40.5q-16 -5 -29 10q-6 7 -11 19.5t-5 19.5l-1 3l-7 -10q-21 -32 -39 -41q-6 -3 -13 -3t-11 2z" />
    <glyph glyph-name="x" unicode="x" horiz-adv-x="154" 
d="M11 124q-6 9 1 41q7 34 21 73q6 17 3 36q-1 12 -1 38v38l1 11l-6 -6q-14 -13 -18 -4q-2 5 7 19q10 16 19 19q18 7 30 -13q6 -8 8 -29q1 -13 2 -13.5t6 7.5q27 41 49 55q10 7 22 9q8 1 13 -1.5t5 -7.5q0 -7 -10 -10q-17 -5 -30 -18q-21 -21 -42 -55q-10 -17 -9 -26
q3 -35 12 -48q5 -8 27 17q10 12 26 39q22 38 33 48q12 11 23 14t19 -2t4 -13q-2 -5 -13 -5q-9 0 -13 -2q-13 -7 -36 -47q-20 -36 -29 -50q-4 -6 -13.5 -15t-15.5 -12q-27 -13 -49 9l-6 6l-2 -4q-6 -15 -16 -53q-11 -42 -15 -45q-4 -5 -7 0z" />
    <glyph glyph-name="y" unicode="y" horiz-adv-x="236" 
d="M47 57q19 4 48 36q37 38 68 122q5 16 7.5 21.5t2 6t-18.5 -9.5q-82 -43 -114 -89q-15 -22 -19.5 -44t4.5 -35q4 -6 11 -8q5 -2 11 0zM46 29q-12 2 -24 12q-9 8 -14 20q-5 13 -4 30q3 34 29.5 68t70.5 61q25 17 63 36l13 6l2 7q7 23 8.5 40.5t-2.5 19.5q-4 1 -14 -6
q-7 -4 -31 -30q-38 -40 -66 -50q-24 -8 -41 9q-13 12 -13 36q0 22 10.5 44t24.5 28q9 3 16 0q9 -5 1 -33l-5 -20q-4 -17 -3 -30l1 -6h4q9 0 27 13q8 7 30 29t28 27q35 26 57 3q15 -16 15 -48l1 -10v1q2 0 14 5q28 11 41 7q8 -2 10 -4t0 -5q-3 -6 -29 -11q-31 -6 -39 -11
q-1 -1 -4 -14q-14 -57 -44 -117q-25 -51 -53 -78q-32 -31 -67 -30q-10 0 -13 1z" />
    <glyph glyph-name="z" unicode="z" horiz-adv-x="219" 
d="M166 389q17 -4 23 -11q21 -23 -4 -71q-9 -17 -24 -37q-1 -2 4 -6q8 -6 8 -11q0 -9 -15 -11q-7 -1 -12.5 0t-6.5 0q-6 -8 -45 -53q-9 -11 -7.5 -11t13.5 1q80 7 111 5q18 -1 22 -8q1 -3 2.5 -4t-1.5 -6q-4 -9 -18 -12q-20 -4 -88 -12q-45 -5 -61 -6t-23 1q-19 7 -17 29
q0 10 8 22.5t33 41.5q6 7 9 11t5 6.5t3 3.5t0 2q-2 0 -12 -1q-16 -1 -21 0t-7 7t2 12t12 8q5 2 23 2t23 -1h6l11 13q28 35 34 54q3 8 2 10q-2 3 -13.5 2t-22.5 -4q-29 -9 -58 -31q-25 -19 -36 -37q-5 -8 -11 -6q-6 4 -4.5 13.5t10.5 23t21 24.5q33 29 63.5 40.5t44.5 9.5z
" />
    <glyph glyph-name="braceleft" unicode="{" horiz-adv-x="190" 
d="M152 29q-12 4 -20 13q-11 12 -17 31q-8 24 -9 83q-1 49 -6 63l-2 7h-7q-20 2 -28 19q-4 8 -1 18q2 7 10 11.5t16 3.5q4 -1 4.5 1.5t1.5 33.5t1 32q-1 1 0.5 39.5t2.5 50.5q12 122 63 174q27 27 56 26q23 -1 41 -20q10 -11 11 -21q1 -12 -6 -15q-3 -2 -6.5 -0.5t-5.5 4.5
q-5 8 -18 16l-10 4q-12 3 -23 -5q-15 -11 -26 -36q-26 -54 -31 -143q-1 -17 -2 -75q-1 -68 -6 -83q-2 -7 -4 -10l-2 -3l3 -8q12 -28 15 -93q3 -71 16 -84q5 -5 22 1q9 3 13 4q8 1 11.5 -6t-1.5 -14q-11 -15 -29 -19q-14 -4 -27 0z" />
    <glyph glyph-name="bar" unicode="|" horiz-adv-x="198" 
d="M118 40q-10 5 -12 21q-2 21 -3.5 142t-0.5 197q2 126 8 164q4 21 9 29.5t14 8.5t13 -8q2 -5 2 -19q-2 -201 0 -365q1 -107 1 -131.5t-2 -28.5q-4 -9 -12.5 -11.5t-16.5 1.5z" />
    <glyph glyph-name="braceright" unicode="}" horiz-adv-x="208" 
d="M88 19q-13 2 -16 13q-1 7 3 13q2 4 12 9q19 9 30 32q12 27 8 111q-2 51 0.5 76.5t11.5 45.5q3 6 3 7t-5 2q-15 7 -29 27q-16 24 -20 78q-2 37 5 94q5 43 2 66q-1 8 -2.5 10.5t-6.5 2.5q-12 -1 -27 -23q-8 -12 -14 -11q-5 2 -6 7.5t2 11.5q8 15 21 25q24 18 44 12
q15 -6 23 -25q13 -36 7 -108q-4 -53 2 -86q5 -29 18 -45q9 -11 16 -9q4 1 7 -1q8 -3 7.5 -11t-8.5 -13q-14 -9 -19 -41q-2 -18 2 -53q6 -59 6 -98q0 -46 -14 -77q-16 -35 -48 -42q-8 -2 -15 0z" />
    <glyph glyph-name="asciitilde" unicode="~" horiz-adv-x="400" 
d="M282 271q-26 4 -69 33q-38 26 -55 26q-13 -1 -26 -14q-8 -8 -11 -16q-5 -14 -12 -11q-11 6 -3 30q8 26 31 38q13 6 28 6q27 1 72 -29q30 -19 46 -25q8 -2 21.5 -2t19.5 2q5 3 12 10t10 11q1 4 2 10q2 15 12 15q9 0 13 -8q5 -9 0 -23q-10 -29 -48 -48q-19 -9 -43 -5z" />
    <glyph glyph-name="exclamdown" unicode="&#xa1;" horiz-adv-x="210" 
d="M174 413q8 -5 10 -18q1 -9 -7 -36q-4 -11 -25.5 -64.5t-31.5 -74.5q-18 -40 -29 -59q-15 -26 -34 -21q-5 1 -9.5 5.5t-5.5 9.5q-3 9 7 27q23 39 63 140q32 80 40 87q5 4 7 5q8 3 15 -1zM212 545q9 -3 13 -12t0 -19q-4 -11 -16.5 -13.5t-20.5 6.5q-8 8 -6.5 19.5
t11.5 16.5t19 2z" />
    <glyph glyph-name="sterling" unicode="&#xa3;" horiz-adv-x="417" 
d="M348 548q14 0 28 -6q18 -9 28 -28t10 -41q0 -45 -20 -62q-4 -7 -13 -6t-11 9q1 6 4 18.5t3 19.5q-2 35 -9 45q-3 5 -9 5.5t-11 -2.5q-45 -32 -80 -99q-7 -11 -17.5 -34t-12.5 -28q-1 -1 -2.5 -4t-2 -5t0 -5t2.5 -4q5 -4 17.5 -7.5t17.5 -6.5q17 -9 8 -29q-10 -21 -29 -16
q-6 2 -12 6l-9.5 4t-14.5 2q-7 -12 -24 -63q-2 -8 -7.5 -22.5t-7.5 -19.5q-2 -4 0 -7.5t6 -3.5q23 -3 79.5 -16t87.5 -16q24 -2 44 3q13 3 23 -4t9 -18.5t-16 -18.5q-53 -14 -144 9q-10 3 -33 9t-40 9t-34 3q-3 -1 -5 -3t-5 -5.5t-5 -4.5q-10 -13 -25.5 -19.5t-30.5 -1.5
q-10 3 -14.5 14t-0.5 22q1 3 2 5.5t3.5 5.5t4 5t5 4.5t4.5 3.5t5.5 3.5t5.5 3t6 3.5l5 3q8 15 13.5 30t13.5 40t10 31q1 1 4.5 10.5t1.5 15.5q-5 3 -11 3t-13.5 -0.5t-11.5 -0.5q-10 -3 -18 5.5t-4 18.5q12 16 46 19q5 1 17.5 0.5t16.5 3.5q3 8 12.5 28.5t14 30.5t13.5 27.5
t16 29t17 25.5t20 26q38 45 78 48zM110 117h-3q-6 -1 -6 -7.5t6 -7.5q4 -1 6.5 2.5t1.5 7.5t-5 5z" />
    <glyph glyph-name="copyright" unicode="&#xa9;" horiz-adv-x="384" 
d="M269 459q19 0 36 -4q48 -13 62 -52q0 -3 3.5 -7t4.5 -7q3 -73 -22 -140q-23 -63 -73 -101q-50 -37 -99 -41q-29 -4 -57.5 8.5t-44.5 37.5q-27 44 -13 111q15 81 72 134q63 60 131 61zM278 427h-2h-5q-55 -4 -104 -52q-47 -44 -59 -114q-13 -58 12 -95q8 -14 23.5 -21.5
t32.5 -6.5q61 7 109 57q53 57 59 158q1 5 1 16v16q3 7 -6 14q-26 28 -61 28zM240 390q12 0 23 -6q25 -12 23 -48q-4 -38 -18 -55q-4 -6 -12 -4.5t-10 8.5q1 6 5.5 19.5t5.5 20.5v8v9t-1.5 7.5t-3.5 7.5q-10 7 -25 -7q-38 -36 -37 -104q0 -20 7 -25q11 0 19 17q4 11 14 8.5
t16 -12.5q1 -4 -8 -15q-19 -25 -40 -26q-14 -1 -26.5 9t-17.5 24q-16 56 20 117q26 46 66 47z" />
    <glyph glyph-name="plusminus" unicode="&#xb1;" horiz-adv-x="289" 
d="M145 338q6 40 22 53t28 -24q0 -12 -1 -32q24 -1 40 -4q11 0 17.5 -9t2 -19t-19.5 -13q-16 1 -41 3v-27t-2 -27q-2 -14 -12 -21t-20.5 -1.5t-14.5 21.5q-1 24 0 59h-22q-28 -4 -34 12q-7 15 16 24q16 6 41 3v1.5v0.5zM172 187q38 0 66 -6q11 1 10 -20t-15 -20h-3
q-55 9 -112 0q-6 -2 -22 1q-6 -1 -10.5 4t-4.5 11q0 4 2 7t8 7l6 4q23 10 75 12z" />
    <glyph glyph-name="questiondown" unicode="&#xbf;" horiz-adv-x="278" 
d="M107 104q-9 0 -15 1q-33 9 -43 46q-6 23 0 52q6 26 28 77q22 50 28 79q6 25 7 68q0 35 2 39q5 9 16 10q7 0 10 -1q6 -3 8 -9q5 -8 5 -42q0 -38 -6 -67q-8 -35 -32 -93q-18 -41 -23 -57t-6 -31q0 -13 1 -18q5 -15 17 -16q10 -1 24 5q28 13 47.5 45.5t23.5 68.5q1 17 -3 33
q-5 18 6 26q7 5 17 0q9 -4 15 -17q19 -40 -16 -111q-15 -32 -39 -55q-35 -33 -72 -33zM134 519q-10 0 -16.5 6.5t-6.5 16.5q0 8 5 14t12 8t13 0q7 -2 11.5 -8.5t4.5 -13.5q0 -10 -6.5 -16.5t-16.5 -6.5z" />
    <glyph glyph-name="Adieresis" unicode="&#xc4;" horiz-adv-x="423" 
d="M308.5 670q8.5 0 14.5 -6t6 -14.5t-6 -14t-14.5 -6t-14.5 5.5t-6 14.5t6 14.5t14.5 6zM371.5 670q8.5 0 14.5 -6t6 -14.5t-6 -14t-14.5 -6t-14.5 5.5t-6 14.5t6 14.5t14.5 6zM336 599q3 0 6 -1q10 -1 18 -10q13 -14 10.5 -51t-19.5 -128q-4 -24 -4 -24.5t11 1.5
q42 5 75 0q14 -3 22 -9.5t4 -12.5q-5 -8 -30 -4t-50 1q-34 -2 -37 -5q-1 -1 -6 -34.5t-7 -56.5q-9 -98 4 -184q3 -16 4 -19t1 -10q0 -26 -21 -26q-9 0 -17 9q-6 7 -9 20q-14 57 -11 161q2 56 10 109q2 17 2 18h-0.5t-3 -0.5t-6.5 -2t-11 -3.5q-48 -18 -87 -42
q-12 -7 -13 -11q-32 -91 -53 -175q-13 -51 -18 -93q-2 -13 -3 -16q-4 -9 -12 -4q-5 4 -5 18q0 30 15 94.5t39 135.5q8 24 8 24.5t-7 -4.5t-16 -11.5t-16 -11.5q-54 -40 -82 -76q-5 -7 -7 -8q-4 -1 -8 1t-5 7q-2 12 24 41t67 59q25 19 52 36q13 9 14.5 12.5t9.5 23.5
q46 117 97 193q29 43 44 56q14 12 27 13zM323 557q-4 0 -18 -13q-30 -29 -74 -117q-29 -58 -39 -87q0 -2 -2.5 -7t-1.5 -5t15 7q38 20 80 34q14 4 15 7q5 22 17 96q13 81 9 85h-1z" />
    <glyph glyph-name="Odieresis" unicode="&#xd6;" horiz-adv-x="281" 
d="M146.5 670q8.5 0 14.5 -6t6 -14.5t-6 -14t-14.5 -6t-14.5 5.5t-6 14.5t6 14.5t14.5 6zM209.5 670q8.5 0 14.5 -6t6 -14.5t-6 -14t-14.5 -6t-14.5 5.5t-6 14.5t6 14.5t14.5 6zM164 552h5q26 -1 42 -9q17 -8 28 -19q31 -34 41 -101q6 -39 2 -81q-7 -66 -37 -129
q-37 -77 -90 -111q-53 -33 -97.5 -6.5t-54.5 87.5q-2 11 -2 33t2 35q4 28 11 51q3 11 1.5 12.5t-3 4.5t-4.5 8q-6 8 -5 26q3 40 21 81.5t44 69.5q31 32 64 43q16 5 32 5zM165 526l-13 -5q-23 -8 -40 -22q-42 -37 -61 -107l-1 -5q2 2 12 18q15 26 30 39q25 22 37 10
q7 -7 3 -19q-6 -17 -22 -41q-32 -47 -48 -94q-28 -70 -4 -128q20 -51 62 -43q24 5 49 29q35 35 56 74q39 78 34 162q-4 73 -31 107q-10 12 -28 20q-8 4 -22 4z" />
    <glyph glyph-name="multiply" unicode="&#xd7;" horiz-adv-x="291" 
d="M244 391q6 0 9.5 -5.5t1.5 -11.5q-2 -4 -8 -18q-23 -37 -59 -84q0 -1 1 -2t2 -1q1 -1 20.5 -21t28.5 -31q16 -21 2.5 -33t-31.5 8q-3 3 -47 49q-48 -62 -64 -78q-11 -12 -23 -10.5t-13.5 12.5t8.5 25q15 19 65 80q-9 10 -17 19q-21 24 -36 51q-6 6 -2.5 14.5t11.5 8.5
q6 0 21 -13q19 -23 46 -50q6 7 11 14q3 3 22 28t30 37q2 1 6 4t7 5t7 3h1z" />
    <glyph glyph-name="Udieresis" unicode="&#xdc;" horiz-adv-x="317" 
d="M233.5 670q8.5 0 14.5 -6t6 -14.5t-6 -14t-14.5 -6t-14.5 5.5t-6 14.5t6 14.5t14.5 6zM296.5 670q8.5 0 14.5 -6t6 -14.5t-6 -14t-14.5 -6t-14.5 5.5t-6 14.5t6 14.5t14.5 6zM146 567q8 1 15 -5q6 -7 6 -19t-14 -44q-8 -19 -24 -59q-33 -80 -48 -125q-36 -108 -33 -165
q1 -21 6 -30q5 -8 10 -8.5t17 6.5q34 17 77 76q25 36 58 93q14 25 42 80t32 65q14 43 21 53q7 9 16 7q15 -2 17 -16q3 -16 -15 -73q-23 -76 -35 -152q-9 -59 -7 -127q2 -56 9 -80q4 -14 1 -19q-7 -11 -18 -6q-12 6 -22 36q-7 19 -13 51q-7 41 -1 105q5 64 24 140q3 13 2 13
q0 1 -18 -37q-35 -72 -48 -96q-34 -61 -53 -85q-3 -4 -6 -9q-10 -14 -30 -33q-19 -18 -37 -26q-26 -12 -49 2q-10 7 -17 21q-27 57 18 206q17 57 68 178q28 68 34 74q6 8 15 8z" />
    <glyph glyph-name="adieresis" unicode="&#xe4;" horiz-adv-x="199" 
d="M89.5 456q8.5 0 14.5 -6t6 -14.5t-6 -14.5t-14.5 -6t-14.5 6t-6 14.5t6 14.5t14.5 6zM152.5 456q8.5 0 14.5 -6t6 -14.5t-6 -14.5t-14.5 -6t-14.5 6t-6 14.5t6 14.5t14.5 6zM164 403q11 0 16 -11q6 -12 4 -24q-1 -4 -5 -26q-12 -62 -12 -90q0 -17 0.5 -18.5t6.5 4.5
q12 12 32 49q18 33 26.5 44.5t17.5 14.5q7 2 13 -1t6 -9q0 -3 -1 -5q-3 -5 -10 -5q-5 0 -15 -15q-6 -9 -35 -66q-23 -44 -39 -51q-14 -6 -27 0q-12 6 -17 19q-5 14 -4 46q0 23 1.5 31.5t1 8t-5.5 -8.5q-18 -29 -36 -52q-13 -17 -25 -26q-12 -8 -23 -8q-12 -1 -22 8
q-7 7 -10 18q-5 25 10 62t42 65q17 17 34 24q7 3 16 3.5t14 -2.5q9 -4 16 -14q2 -4 3 -2q0 1 1 7q3 15 12 24q6 5 14 6zM117 347q-2 0 -6 -3q-21 -13 -40.5 -42t-22.5 -53q-1 -4 0 -4q2 0 9 5q15 11 30 30q22 27 37 55l3 5l-4 3q-4 4 -6 4z" />
    </font>
</defs>
</svg>
